<svg width="24" height="24" viewBox="0 0 24 24" fill="none" xmlns="http://www.w3.org/2000/svg">
    <rect width="24" height="24" rx="12" fill="#FF7F00"/>
    <path d="M11.7432 8.3928C12.6453 8.3928 13.3767 7.60886 13.3767 6.64183C13.3767 5.6748 12.6453 4.89087 11.7432 4.89087C10.8411 4.89087 10.1097 5.6748 10.1097 6.64183C10.1097 7.60886 10.8411 8.3928 11.7432 8.3928Z" fill="white"/>
    <path d="M11.3803 8.50146C11.2777 8.49665 11.1683 8.55743 11.107 8.6372C11.0457 8.71697 11.0227 8.81853 11.0237 8.91704C11.0252 9.03581 11.0589 9.15079 11.0837 9.26576C11.1103 9.38884 11.1301 9.51293 11.143 9.63829C11.1481 9.68641 11.224 9.68692 11.219 9.63829C11.2076 9.52889 11.1919 9.41999 11.1706 9.31185C11.1493 9.20372 11.1167 9.0971 11.1042 8.9877C11.0939 8.89729 11.0989 8.80105 11.1435 8.71951C11.1881 8.63796 11.2846 8.57287 11.38 8.57743C11.4289 8.57971 11.4289 8.50374 11.38 8.50146H11.3803Z" fill="white"/>
    <path d="M11.1172 9.45816C11.1661 9.79422 11.2149 10.1305 11.2636 10.4666C11.2707 10.5147 11.3438 10.4942 11.3367 10.4463C11.2879 10.1103 11.239 9.77396 11.1904 9.4379C11.1833 9.38978 11.1101 9.4103 11.1172 9.45816Z" fill="white"/>
    <path d="M11.2499 10.3921C11.277 10.5772 11.3031 10.7624 11.3276 10.948C11.3398 11.0394 11.3514 11.1306 11.3631 11.222C11.3689 11.2676 11.3745 11.3134 11.38 11.359C11.3854 11.4023 11.3902 11.4454 11.4069 11.4859C11.4254 11.5305 11.4988 11.511 11.4801 11.4656C11.4634 11.4254 11.4588 11.3831 11.4535 11.3403C11.4479 11.2947 11.4421 11.2489 11.4365 11.2033C11.4246 11.1098 11.4127 11.0164 11.4003 10.9229C11.3757 10.7391 11.3502 10.5555 11.3231 10.3719C11.316 10.3237 11.2428 10.3443 11.2499 10.3921Z" fill="white"/>
    <path d="M11.3772 11.3561C11.4299 11.7636 11.4889 12.1703 11.5542 12.5757C11.5621 12.6239 11.6353 12.6033 11.6274 12.5555C11.5631 12.1566 11.5049 11.7567 11.4529 11.3561C11.4469 11.3082 11.3706 11.3077 11.377 11.3561H11.3772Z" fill="white"/>
    <path d="M11.5408 12.5003C11.6211 12.8911 11.9331 13.1707 12.2406 13.3961C12.3338 13.4644 12.4237 13.5351 12.507 13.6154C12.5857 13.6913 12.6605 13.7711 12.7412 13.8446C12.822 13.918 12.9109 13.9821 13.0031 14.0413C13.0953 14.1006 13.1913 14.1611 13.2748 14.2356C13.3713 14.3217 13.4587 14.4184 13.5451 14.5147C13.6314 14.6109 13.7183 14.7132 13.8011 14.8158C13.8317 14.8538 13.8852 14.7998 13.8548 14.7621C13.7117 14.5846 13.5623 14.4103 13.4004 14.2498C13.3214 14.1713 13.2356 14.1024 13.1424 14.0408C13.0492 13.9793 12.9568 13.9256 12.8719 13.8572C12.7022 13.7205 12.565 13.549 12.3923 13.4153C12.2312 13.2907 12.0653 13.1765 11.9238 13.0286C11.7822 12.8807 11.6573 12.6915 11.6138 12.4801C11.6039 12.4322 11.5307 12.4525 11.5406 12.5003H11.5408Z" fill="white"/>
    <path d="M13.7578 14.768C13.8353 14.8447 13.8875 14.9402 13.9409 15.0342C14.0002 15.1383 14.0592 15.2421 14.1184 15.3462C14.1734 15.4427 14.2324 15.5361 14.2532 15.6468C14.2727 15.7506 14.2597 15.8577 14.2212 15.9558C14.2033 16.0013 14.2767 16.0211 14.2944 15.976C14.3355 15.8719 14.3466 15.7585 14.3299 15.6481C14.3119 15.5305 14.2542 15.4315 14.1962 15.3297C14.1329 15.2185 14.0698 15.1074 14.0065 14.9962C13.95 14.8967 13.8935 14.7959 13.8115 14.7146C13.7768 14.6801 13.7231 14.7338 13.7578 14.7683V14.768Z" fill="white"/>
    <path d="M14.2378 15.9237C14.2254 16.0257 14.1466 16.1164 14.0876 16.1959C14.0207 16.2861 13.9493 16.3727 13.8741 16.4558C13.8374 16.4963 13.8017 16.5322 13.7541 16.5601C13.7065 16.5879 13.6578 16.6148 13.6102 16.6434C13.5137 16.7019 13.4195 16.764 13.3276 16.8298C13.2881 16.8579 13.3261 16.924 13.3658 16.8954C13.4626 16.8263 13.5618 16.7609 13.6637 16.6999C13.7143 16.6695 13.768 16.6427 13.8174 16.6105C13.8668 16.5783 13.9047 16.5355 13.9432 16.4922C14.021 16.4054 14.0944 16.3144 14.1633 16.2205C14.2322 16.1265 14.2996 16.0384 14.3135 15.9242C14.3193 15.8758 14.2433 15.8761 14.2375 15.9242L14.2378 15.9237Z" fill="white"/>
    <path d="M14.2207 15.9888C14.2207 15.9888 14.2207 15.99 14.221 15.9908L14.2197 15.9807C14.2205 15.987 14.2205 15.9936 14.2197 15.9999L14.221 15.9898C14.2199 15.9961 14.2184 16.0024 14.2159 16.0085L14.2197 15.9994C14.2172 16.005 14.2141 16.0103 14.2106 16.0154L14.2164 16.0078C14.2149 16.0098 14.2131 16.0118 14.2113 16.0136C14.2045 16.0207 14.2002 16.0306 14.2002 16.0404C14.2002 16.0498 14.2042 16.0609 14.2113 16.0673C14.2184 16.0736 14.2281 16.0789 14.2382 16.0784C14.2483 16.0779 14.2579 16.0746 14.265 16.0673C14.2774 16.0544 14.2863 16.0389 14.2914 16.0219C14.2939 16.0136 14.2952 16.0045 14.2957 15.9956C14.2962 15.9867 14.2949 15.9776 14.2936 15.9688C14.2924 15.9637 14.2901 15.9594 14.2868 15.9558C14.284 15.9518 14.2805 15.9485 14.2762 15.946C14.2681 15.9412 14.2559 15.9391 14.2468 15.9422C14.2377 15.9452 14.2288 15.9508 14.224 15.9596L14.2202 15.9688C14.2184 15.9756 14.2184 15.9822 14.2202 15.989L14.2207 15.9888Z" fill="white"/>
    <path d="M14.2192 15.9497C14.2149 15.9933 14.1896 16.0353 14.166 16.0731C14.1369 16.1192 14.1072 16.165 14.0779 16.2108C14.0667 16.2281 14.0743 16.2526 14.0915 16.2627C14.1098 16.2734 14.1323 16.2665 14.1435 16.2491C14.1746 16.2004 14.2063 16.1521 14.2367 16.1029C14.267 16.0538 14.2893 16.0057 14.2952 15.9497C14.2972 15.9292 14.2762 15.9117 14.2572 15.9117C14.2349 15.9117 14.2212 15.9292 14.2192 15.9497Z" fill="white"/>
    <path d="M13.3451 16.8156C13.1688 16.9123 12.9842 16.9931 12.7927 17.0554C12.5927 17.1207 12.3888 17.1765 12.1862 17.2337C12.0715 17.2661 11.956 17.2957 11.8387 17.318C11.7909 17.3271 11.8111 17.4003 11.859 17.3912C12.0697 17.3512 12.2748 17.2874 12.4805 17.2276C12.6803 17.1694 12.8796 17.1129 13.0715 17.0321C13.1782 16.9873 13.2823 16.9369 13.3836 16.8812C13.4264 16.8576 13.3881 16.792 13.3453 16.8156H13.3451Z" fill="white"/>
    <path d="M11.8696 17.3111C11.7537 17.344 11.6349 17.3881 11.5141 17.3997C11.4531 17.4056 11.3915 17.4053 11.3305 17.4111C11.2694 17.417 11.2087 17.4263 11.1479 17.4354C10.8936 17.4742 10.6394 17.5132 10.3851 17.5522C10.2392 17.5745 10.0934 17.5968 9.94748 17.619C9.89937 17.6264 9.91988 17.6996 9.96774 17.6922C10.222 17.6532 10.4763 17.6145 10.7305 17.5755C10.8597 17.5557 10.9888 17.536 11.1183 17.5162C11.1808 17.5066 11.2431 17.4962 11.3059 17.4894C11.3654 17.4828 11.4252 17.4818 11.485 17.4777C11.6237 17.4684 11.7569 17.4218 11.8899 17.384C11.9368 17.3706 11.917 17.2974 11.8696 17.3108V17.3111Z" fill="white"/>
    <path d="M9.99299 17.6019C9.49713 17.7267 8.99848 17.87 8.48667 17.9106C8.41905 17.9159 8.35143 17.9164 8.28381 17.9212C8.22937 17.925 8.18125 17.9389 8.14731 17.9838L8.18024 17.965C8.11034 17.9605 8.0412 17.9637 7.97207 17.9731C7.93003 17.9787 7.93965 18.0514 7.9822 18.0478C8.06678 18.0407 8.15061 18.0273 8.23291 18.0068C8.28128 17.9949 8.26001 17.9255 8.21265 17.9336C8.03588 17.9635 7.85886 17.9934 7.6821 18.023C7.54382 18.0463 7.34097 18.0534 7.29209 18.216C7.27791 18.2628 7.35135 18.2831 7.36528 18.2362C7.38529 18.1696 7.45493 18.1425 7.51672 18.1289C7.59396 18.1116 7.67348 18.1013 7.75149 18.0881C7.91179 18.061 8.07235 18.0339 8.23266 18.0071L8.2124 17.9339C8.13668 17.9529 8.05994 17.9658 7.98194 17.9724L7.99207 18.0471C8.0255 18.0425 8.05944 18.04 8.09337 18.0395C8.11211 18.039 8.1306 18.0395 8.14934 18.04C8.16529 18.0405 8.18505 18.0453 8.19948 18.0364C8.20911 18.0309 8.21366 18.0205 8.22253 18.0139C8.23139 18.0073 8.24127 18.0048 8.2514 18.0022C8.27824 17.9957 8.30686 17.9967 8.33421 17.9957C8.47198 17.9908 8.60924 17.9772 8.74574 17.9579C9.019 17.9194 9.28795 17.8569 9.55563 17.7903C9.70834 17.7523 9.8608 17.7138 10.0133 17.6753C10.0606 17.6634 10.0406 17.5902 9.99299 17.6021V17.6019Z" fill="white"/>
    <path d="M7.37775 18.1221C7.36154 18.1433 7.33014 18.1509 7.31241 18.172C7.29139 18.1965 7.28734 18.232 7.30456 18.2598C7.32077 18.2862 7.35014 18.2961 7.37572 18.3102C7.4013 18.3244 7.4056 18.349 7.38838 18.3743C7.36863 18.4034 7.32836 18.4108 7.29569 18.4138C7.2496 18.4184 7.203 18.4186 7.15666 18.4207C7.05739 18.4252 6.95811 18.4295 6.85884 18.4341C6.81857 18.4359 6.80439 18.502 6.84871 18.5088C6.96748 18.5268 7.08727 18.5321 7.20706 18.5215C7.23441 18.5189 7.26176 18.5159 7.28886 18.5118C7.30304 18.5098 7.31722 18.5065 7.33166 18.5057C7.34685 18.5047 7.34533 18.5055 7.34508 18.5197C7.34432 18.561 7.36382 18.6033 7.38838 18.6352C7.44182 18.7048 7.52792 18.7443 7.61099 18.7651C7.72546 18.7934 7.84499 18.801 7.9625 18.8026C8.45785 18.8096 8.95144 18.7496 9.44476 18.7144C9.72385 18.6944 10.0037 18.6823 10.2835 18.6921C10.3324 18.6939 10.3324 18.6179 10.2835 18.6162C9.78944 18.5987 9.29712 18.6511 8.80531 18.6899C8.55915 18.7094 8.31249 18.7251 8.06557 18.7268C7.94806 18.7276 7.82904 18.7273 7.71254 18.7081C7.62289 18.6934 7.52336 18.6704 7.45879 18.6012C7.44486 18.5863 7.43346 18.5688 7.42713 18.5496C7.41903 18.5255 7.42358 18.4997 7.41472 18.4761C7.39319 18.4179 7.32887 18.4298 7.28075 18.4366C7.14476 18.4566 7.00471 18.4556 6.86897 18.4351L6.85884 18.5098C6.96647 18.505 7.07385 18.5002 7.18148 18.4954C7.26302 18.4918 7.36964 18.5007 7.43295 18.4384C7.48411 18.3882 7.49272 18.2983 7.43017 18.254C7.41751 18.2452 7.40332 18.2391 7.38965 18.232C7.38382 18.2289 7.37293 18.2251 7.36939 18.2196C7.36762 18.217 7.36762 18.2251 7.3704 18.2201C7.37597 18.21 7.39395 18.2036 7.40332 18.1973C7.41928 18.1864 7.43169 18.175 7.44334 18.1596C7.456 18.1431 7.44562 18.1173 7.42966 18.1076C7.41016 18.096 7.39016 18.1051 7.37775 18.1213V18.1221Z" fill="white"/>
    <path d="M10.2523 18.6959C10.5045 18.6772 10.7565 18.6584 11.0088 18.6397C11.2577 18.6212 11.5089 18.6113 11.7548 18.5675C11.8931 18.543 12.0299 18.5103 12.1666 18.4776C12.2142 18.4662 12.194 18.393 12.1463 18.4044C11.9075 18.4614 11.6695 18.5141 11.4241 18.5331C11.1787 18.5521 10.9244 18.5703 10.6745 18.589L10.252 18.6205C10.2037 18.624 10.2032 18.7 10.252 18.6964L10.2523 18.6959Z" fill="white"/>
    <path d="M12.1591 18.4757C12.602 18.3688 13.0374 18.229 13.4697 18.0859C13.5882 18.0466 13.7057 18.0036 13.8179 17.9481C13.8617 17.9264 13.8232 17.8608 13.7796 17.8825C13.5824 17.9803 13.3671 18.0401 13.1579 18.1069C12.9432 18.1758 12.7279 18.2432 12.5111 18.3047C12.3878 18.3397 12.2637 18.3723 12.1391 18.4025C12.0915 18.4139 12.1117 18.4873 12.1593 18.4757H12.1591Z" fill="white"/>
    <path d="M13.8089 17.946C13.8522 17.9387 13.8872 17.9138 13.9221 17.8893C13.9594 17.8629 13.9979 17.8381 14.0374 17.8151C14.1179 17.7677 14.202 17.7264 14.2863 17.6859C14.4527 17.6056 14.6193 17.5261 14.7652 17.4111C14.8034 17.3808 14.7495 17.3273 14.7115 17.3575C14.5715 17.4679 14.4079 17.5433 14.2481 17.6203C14.1685 17.6586 14.0893 17.6976 14.0128 17.7416C13.9748 17.7637 13.9373 17.7867 13.9011 17.8118C13.8649 17.8369 13.8325 17.8657 13.7887 17.8731C13.7406 17.8812 13.7611 17.9546 13.8089 17.9463V17.946Z" fill="white"/>
    <path d="M14.7592 17.413C14.8661 17.3598 14.9385 17.2623 15.0008 17.1636C15.0368 17.1063 15.0715 17.0481 15.1067 16.9903C15.1419 16.9326 15.1761 16.8736 15.189 16.8065C15.1981 16.7586 15.1249 16.7383 15.1158 16.7862C15.1041 16.8472 15.0732 16.8994 15.0413 16.9521C15.0079 17.0073 14.9745 17.0628 14.9403 17.1175C14.8836 17.2084 14.8195 17.2983 14.7212 17.3472C14.6774 17.3689 14.7159 17.4345 14.7595 17.4127L14.7592 17.413Z" fill="white"/>
    <path d="M15.2915 15.4465C15.3358 15.5438 15.3667 15.6395 15.3791 15.7459C15.3893 15.8337 15.3926 15.9224 15.3885 16.0108C15.3804 16.188 15.3422 16.3661 15.2682 16.5276C15.2267 16.6181 15.1748 16.7037 15.1117 16.7809C15.0811 16.8184 15.1345 16.8726 15.1654 16.8346C15.4078 16.538 15.4964 16.1425 15.4571 15.7659C15.4508 15.7051 15.4425 15.6443 15.4265 15.5853C15.4105 15.5263 15.3834 15.4658 15.3571 15.408C15.3368 15.3635 15.2715 15.4022 15.2915 15.4463V15.4465Z" fill="white"/>
    <path d="M14.4482 14.0669C14.4662 14.0745 14.4824 14.1018 14.494 14.116C14.5102 14.1352 14.5257 14.1553 14.5409 14.1753C14.5715 14.2163 14.6006 14.2586 14.6287 14.3011C14.6845 14.3849 14.7374 14.4708 14.7951 14.5531C14.8529 14.6354 14.9131 14.7187 14.9625 14.8096C15.0155 14.9071 15.0684 15.0046 15.1211 15.1021C15.1808 15.2126 15.2409 15.323 15.3006 15.4334C15.3239 15.4765 15.3895 15.438 15.3662 15.3952C15.2555 15.191 15.1446 14.9867 15.0339 14.7825C14.9828 14.6881 14.9223 14.603 14.8607 14.5151C14.7992 14.4272 14.746 14.3404 14.688 14.2535C14.6553 14.2046 14.6217 14.1565 14.5857 14.1099C14.5528 14.0671 14.5196 14.0152 14.4684 13.9937C14.4494 13.9856 14.4269 14.0023 14.4216 14.0203C14.4153 14.042 14.4292 14.059 14.4482 14.0671V14.0669Z" fill="white"/>
    <path d="M13.3624 13.082C13.4457 13.1298 13.5131 13.1974 13.5815 13.2638C13.6498 13.3301 13.7228 13.3955 13.796 13.4583C13.9393 13.5816 14.0867 13.7011 14.2214 13.8344C14.2987 13.9108 14.3714 13.9916 14.4352 14.0798C14.4635 14.119 14.5296 14.081 14.5008 14.0415C14.2685 13.7214 13.937 13.5003 13.6549 13.2288C13.5751 13.1521 13.4979 13.0718 13.4012 13.0164C13.3586 12.9921 13.3204 13.0576 13.3629 13.082H13.3624Z" fill="white"/>
    <path d="M12.4984 12.4984C12.8182 12.6561 13.1155 12.8567 13.3812 13.0948C13.4174 13.1274 13.4713 13.0737 13.4349 13.0411C13.1647 12.7987 12.8623 12.5933 12.5368 12.4328C12.493 12.4113 12.4545 12.4768 12.4986 12.4984H12.4984Z" fill="white"/>
    <path d="M12.4258 10.9989C12.4291 11.4824 12.5025 11.9648 12.464 12.4483C12.4602 12.4969 12.5362 12.4967 12.54 12.4483C12.5785 11.9648 12.505 11.4824 12.5018 10.9989C12.5015 10.9501 12.4255 10.9501 12.4258 10.9989Z" fill="white"/>
    <path d="M12.4099 9.85853C12.4048 10.2402 12.4119 10.6218 12.4312 11.003C12.4337 11.0516 12.5097 11.0518 12.5072 11.003C12.4882 10.6218 12.4811 10.2402 12.4859 9.85853C12.4866 9.80965 12.4107 9.80965 12.4099 9.85853Z" fill="white"/>
    <path d="M12.49 9.85392C12.4764 9.74654 12.4685 9.61713 12.5946 9.57864C12.6539 9.56065 12.7177 9.55964 12.779 9.55736C12.8524 9.55458 12.9259 9.55483 12.9993 9.55508C13.2951 9.5561 13.5904 9.54419 13.8847 9.51583C14.0501 9.49987 14.2147 9.47886 14.3788 9.45353C14.4269 9.44619 14.4064 9.37274 14.3585 9.38034C14.0485 9.42821 13.736 9.45885 13.4228 9.47202C13.2693 9.47835 13.1158 9.47962 12.9624 9.47911C12.8849 9.47911 12.8074 9.47911 12.7299 9.48367C12.6668 9.48721 12.6017 9.49177 12.543 9.51684C12.4042 9.57585 12.3974 9.72324 12.4141 9.85366C12.4201 9.90153 12.4961 9.90203 12.49 9.85366V9.85392Z" fill="white"/>
    <path d="M11.3748 8.57384C11.4858 8.55788 11.5967 8.54244 11.7086 8.53889C11.8206 8.53534 11.9269 8.53712 12.0358 8.53256C12.2584 8.52319 12.4815 8.51078 12.7036 8.49179C12.8308 8.4809 12.9579 8.46697 13.0843 8.44873C13.1324 8.44164 13.1119 8.36845 13.064 8.37554C12.6239 8.43936 12.1766 8.45203 11.7327 8.46216C11.6058 8.46519 11.4802 8.48242 11.3546 8.50065C11.3065 8.50749 11.327 8.58093 11.3748 8.57384Z" fill="white"/>
    <path d="M13.0643 8.4454C13.6035 8.39475 14.1376 8.31067 14.6573 8.15568C14.8014 8.11263 14.9442 8.06477 15.0853 8.01285C15.1308 7.99613 15.1111 7.92269 15.065 7.93966C14.5663 8.12403 14.049 8.24862 13.5222 8.31877C13.37 8.33903 13.2173 8.3555 13.0643 8.36968C13.016 8.37424 13.0157 8.45021 13.0643 8.44565V8.4454Z" fill="white"/>
    <path d="M14.3816 9.45821C14.6108 9.3949 14.8369 9.32019 15.0583 9.23358C15.1674 9.19078 15.2755 9.14545 15.3824 9.09733C15.4893 9.04921 15.5898 9.00464 15.6772 8.93095C15.7147 8.89929 15.6607 8.84585 15.6235 8.87726C15.5389 8.94842 15.4333 8.99172 15.3333 9.03655C15.2333 9.08137 15.1228 9.12747 15.016 9.169C14.8017 9.25207 14.5832 9.32399 14.3616 9.38502C14.3145 9.39794 14.3345 9.47138 14.3818 9.45821H14.3816Z" fill="white"/>
    <path d="M15.0729 8.01141C15.2411 7.92834 15.3905 7.80855 15.5078 7.66218C15.5207 7.64622 15.5235 7.62419 15.5078 7.60849C15.4946 7.59532 15.467 7.59228 15.4541 7.60849C15.3404 7.75056 15.1978 7.86528 15.0345 7.94582C14.9906 7.96734 15.0291 8.03293 15.0727 8.01141H15.0729Z" fill="white"/>
    <path d="M15.6818 8.9314C15.7605 8.89114 15.8426 8.85391 15.9168 8.80554C15.991 8.75717 16.0515 8.70297 16.11 8.64219C16.2359 8.51202 16.3466 8.3659 16.4567 8.22256C16.4864 8.18381 16.4205 8.14582 16.3911 8.18432C16.285 8.32259 16.1776 8.46314 16.0563 8.58876C16.0009 8.64624 15.9411 8.69968 15.874 8.74324C15.8011 8.79034 15.7208 8.82681 15.6435 8.86632C15.6 8.8886 15.6385 8.95419 15.6818 8.93191V8.9314Z" fill="white"/>
    <path d="M16.4625 8.22263C16.5314 8.10006 16.6284 7.99572 16.6945 7.87137C16.7606 7.74703 16.7978 7.61483 16.8097 7.47656C16.8138 7.42793 16.7378 7.42819 16.7338 7.47656C16.7226 7.6085 16.6831 7.7374 16.6183 7.85263C16.5534 7.96786 16.4623 8.06815 16.3972 8.18414C16.3731 8.22694 16.4387 8.26518 16.4628 8.22238L16.4625 8.22263Z" fill="white"/>
    <path d="M15.4997 7.66592C15.5442 7.62667 15.5865 7.58666 15.6207 7.53778C15.6526 7.49245 15.6762 7.4423 15.6975 7.39115C15.7433 7.28073 15.7826 7.16576 15.8107 7.04951C15.8221 7.0019 15.7489 6.98164 15.7375 7.02925C15.7109 7.13916 15.6739 7.24705 15.6319 7.35215C15.6131 7.399 15.5916 7.44484 15.5637 7.48688C15.5318 7.53525 15.4893 7.57374 15.446 7.61198C15.4093 7.6444 15.4632 7.69783 15.4997 7.66567V7.66592Z" fill="white"/>
    <path d="M16.5998 5.68853C16.6644 5.78603 16.7092 5.89265 16.734 6.00686C16.7609 6.1307 16.7674 6.25809 16.7758 6.38421C16.7928 6.64049 16.8029 6.89855 16.7968 7.15535C16.7938 7.28121 16.7814 7.41012 16.7183 7.5218C16.6943 7.56435 16.7599 7.60284 16.7839 7.56004C16.8419 7.45773 16.8629 7.34225 16.87 7.22601C16.8779 7.0966 16.8748 6.96617 16.872 6.83676C16.869 6.70051 16.8632 6.56427 16.8548 6.42802C16.8465 6.29177 16.8396 6.16363 16.8166 6.03371C16.7923 5.89645 16.7424 5.76628 16.6654 5.65004C16.6385 5.60952 16.5727 5.6475 16.5998 5.68828V5.68853Z" fill="white"/>
    <path d="M15.7338 6.16693C15.7441 6.32343 15.749 6.48019 15.7479 6.63696C15.7474 6.7142 15.7454 6.79169 15.7419 6.86893C15.7383 6.94617 15.7289 7.02139 15.7484 7.09559C15.7609 7.14269 15.8343 7.12269 15.8216 7.07533C15.8029 7.00467 15.815 6.92844 15.8181 6.85652C15.8214 6.77928 15.8232 6.70179 15.8237 6.62455C15.8244 6.47184 15.8196 6.31938 15.8095 6.16718C15.8062 6.11855 15.7302 6.1183 15.7335 6.16718L15.7338 6.16693Z" fill="white"/>
    <path d="M16.2412 5.27278C16.2918 5.28291 16.3212 5.31203 16.3521 5.35129C16.3866 5.3951 16.4402 5.41511 16.4876 5.4422C16.5081 5.45385 16.5152 5.48171 16.5251 5.50197C16.5377 5.52831 16.5519 5.55414 16.5631 5.58124C16.5798 5.62176 16.5681 5.67874 16.6155 5.70102C16.634 5.70964 16.6565 5.70634 16.6674 5.68735C16.677 5.67089 16.6725 5.64404 16.6537 5.63543C16.6444 5.63113 16.6517 5.63467 16.6527 5.63721C16.6507 5.63239 16.6499 5.62682 16.6492 5.62176C16.6479 5.61289 16.6474 5.60378 16.6459 5.59466C16.6413 5.56655 16.6279 5.54046 16.6157 5.51514C16.6028 5.4883 16.5897 5.4612 16.5767 5.43435C16.5638 5.40751 16.5474 5.38826 16.52 5.37332C16.4947 5.35939 16.4686 5.34597 16.4435 5.33153C16.4207 5.31837 16.4078 5.29886 16.3916 5.2786C16.3592 5.23809 16.3126 5.20997 16.2617 5.19984C16.2138 5.19022 16.1936 5.26341 16.2414 5.27303L16.2412 5.27278Z" fill="white"/>
    <path d="M16.2612 5.18763C16.2278 5.18966 16.2154 5.14179 16.2053 5.11698C16.1923 5.08557 16.1766 5.05366 16.1475 5.03442C16.1141 5.01213 16.0819 5.02074 16.0449 5.02049C16.0244 5.02049 16.0214 5.00504 16.0141 4.98731C16.0049 4.96528 15.9981 4.94249 15.9923 4.9197C15.9809 4.87487 15.9229 4.89007 15.9176 4.92983C15.9117 4.9744 15.9059 5.01897 15.9003 5.06379C15.8986 5.07848 15.8917 5.09773 15.8922 5.11216C15.9003 5.10862 15.9019 5.10457 15.8963 5.10001C15.893 5.0957 15.89 5.09089 15.8874 5.08608C15.8829 5.07798 15.8788 5.06962 15.8753 5.06101C15.8499 4.9982 15.8593 4.92248 15.7963 4.88095C15.7694 4.86347 15.7423 4.88753 15.739 4.91387C15.7127 5.12103 15.7223 5.32971 15.7259 5.53788C15.7269 5.58954 15.7271 5.6412 15.7266 5.69261C15.7261 5.74402 15.7226 5.7929 15.7274 5.84279C15.7319 5.88913 15.7476 5.93269 15.7552 5.97853C15.7633 6.02867 15.76 6.08059 15.7575 6.13124C15.755 6.18189 15.831 6.17986 15.8335 6.13124C15.836 6.08261 15.838 6.03019 15.8317 5.98005C15.8261 5.93548 15.8099 5.89318 15.8041 5.84887C15.7975 5.79746 15.8021 5.74453 15.8026 5.69286C15.8031 5.6412 15.8026 5.58954 15.8018 5.53813C15.7983 5.32996 15.7887 5.12128 15.815 4.91412L15.7578 4.94705C15.776 4.95895 15.7785 4.98605 15.7823 5.00555C15.7869 5.02935 15.7914 5.05316 15.7995 5.07595C15.8147 5.11824 15.8416 5.17725 15.8917 5.18459C15.9383 5.19143 15.9634 5.15091 15.97 5.1109C15.9796 5.05113 15.9857 4.9906 15.9933 4.93033L15.9186 4.94046C15.93 4.98453 15.9462 5.05392 15.9859 5.08152C16.0032 5.09342 16.0237 5.09748 16.0444 5.09722C16.0622 5.09697 16.0857 5.08887 16.1022 5.09672C16.1333 5.11166 16.1404 5.16712 16.1556 5.19498C16.1771 5.23423 16.2134 5.26715 16.2607 5.26437C16.3081 5.26158 16.3096 5.18561 16.2607 5.18839L16.2612 5.18763Z" fill="white"/>
    <path d="M15.7337 5.77222C15.7282 5.91784 15.7327 6.06346 15.7474 6.20857C15.7494 6.22908 15.7634 6.24656 15.7854 6.24656C15.8044 6.24656 15.8254 6.22908 15.8234 6.20857C15.8087 6.06371 15.8041 5.91784 15.8097 5.77222C15.8115 5.72335 15.7355 5.72335 15.7337 5.77222Z" fill="white"/>
    <path d="M12.5103 9.27509C12.9142 9.1943 13.3278 9.19379 13.736 9.1472C13.9237 9.12567 13.9346 8.83975 13.736 8.84558C13.3397 8.85723 12.9446 8.91092 12.5475 8.8828C12.3538 8.86913 12.3548 9.17075 12.5475 9.18442C12.9444 9.21228 13.3394 9.15885 13.736 9.1472V8.84558C13.3007 8.89547 12.861 8.898 12.4303 8.98436C12.2401 9.02235 12.3206 9.31308 12.5105 9.27509H12.5103Z" fill="white"/>
    <path d="M13.356 8.3915C13.1795 8.44063 13.0009 8.47735 12.8194 8.50192L12.8996 8.79264C13.0187 8.75491 13.1387 8.72528 13.2615 8.703C13.4292 8.67261 13.3897 8.40112 13.2215 8.40695C12.8351 8.42037 12.4486 8.43531 12.0629 8.46393C11.8801 8.4776 11.6959 8.49128 11.5141 8.5161C11.3776 8.53458 11.235 8.5822 11.1753 8.71794L11.4508 8.83418C11.4561 8.81164 11.4614 8.78885 11.4668 8.76631C11.4987 8.63107 11.3632 8.54117 11.2452 8.59612C11.018 8.70198 11.1038 9.10288 11.1492 9.28927L11.4399 9.20899C11.4234 9.1629 11.4083 9.11655 11.3953 9.06919C11.3895 9.04893 11.3844 9.02867 11.3796 9.00841C11.3761 8.94561 11.3591 8.95219 11.329 9.02867C11.3429 9.04741 11.5734 9.01069 11.6043 9.00917C11.8172 8.99904 12.0274 8.98081 12.2387 8.95017C12.6651 8.88837 13.0868 8.79695 13.5201 8.81873L13.4801 8.52268C13.1316 8.5941 12.7829 8.66551 12.4344 8.73693C12.1219 8.801 11.8059 8.85976 11.5278 9.02487C11.4067 9.09654 11.449 9.31966 11.6038 9.30573C12.2896 9.24444 12.9761 9.17378 13.6652 9.17024C13.8592 9.16923 13.8597 8.86786 13.6652 8.86862C12.8976 8.87242 12.1293 8.87774 11.3655 8.96182C11.253 8.97422 11.1446 9.12845 11.2588 9.21912C11.6184 9.50503 12.0556 9.4944 12.4919 9.46553C12.9751 9.43337 13.4603 9.45211 13.9402 9.37613C14.0669 9.35612 14.0876 9.15504 13.9762 9.1006C13.6601 8.94561 13.3132 8.87141 12.9746 8.78226L13.0799 8.96764C13.0296 9.00335 13.0245 9.01728 13.0642 9.00968C13.0873 9.00841 13.1106 9.00715 13.1336 9.00664C13.18 9.00512 13.2263 9.00436 13.2729 9.00385C13.358 9.00309 13.4431 9.00335 13.5282 9.00132C13.7029 8.99702 13.8772 8.98056 14.0466 8.93624C14.1872 8.89952 14.1932 8.67894 14.0466 8.64551C13.6176 8.54801 13.179 8.51812 12.7408 8.49179V8.7934C13.2881 8.73566 13.8354 8.67792 14.3827 8.62044C14.5731 8.60043 14.5797 8.33047 14.3827 8.31882C14.1368 8.30438 13.8903 8.30565 13.6447 8.32641C13.5545 8.33401 13.4302 8.32641 13.3611 8.39454C13.3005 8.4543 13.2934 8.54725 13.3329 8.62018C13.415 8.77163 13.6482 8.80075 13.8009 8.81468C14.0003 8.83316 14.1988 8.81037 14.3892 8.88432C14.3773 8.79239 14.3652 8.70072 14.3533 8.60879C14.1363 8.74782 13.8665 8.81949 13.6214 8.89344C13.3626 8.97144 13.0997 9.0345 12.834 9.08489C12.6436 9.12086 12.7241 9.41159 12.9143 9.37562C13.1954 9.32244 13.4738 9.25482 13.7473 9.17024C14.0015 9.09173 14.2798 9.01373 14.5055 8.86913C14.6215 8.79467 14.5893 8.63994 14.4695 8.59359C14.3199 8.5356 14.1601 8.52699 14.0008 8.52218C13.922 8.5199 13.8415 8.52066 13.763 8.50901C13.7311 8.50445 13.6994 8.4971 13.6682 8.48824C13.6495 8.48343 13.6313 8.47735 13.613 8.47026C13.5705 8.44316 13.5669 8.44645 13.6024 8.48039L13.5872 8.59663L13.5978 8.57688L13.5077 8.64627C13.6381 8.60549 13.8035 8.61486 13.9395 8.61157C14.0871 8.60777 14.2348 8.61157 14.3824 8.62018V8.31856C13.8351 8.3763 13.2879 8.43404 12.7406 8.49153C12.5499 8.51154 12.5436 8.78125 12.7406 8.79315C13.1521 8.81797 13.5631 8.84431 13.9661 8.93598V8.64525C13.7381 8.70451 13.5059 8.69945 13.2724 8.70198C13.1015 8.70375 12.8457 8.67716 12.7887 8.88711C12.7677 8.96511 12.8148 9.05172 12.8941 9.07249C13.2053 9.15454 13.533 9.2181 13.8237 9.36043C13.8356 9.2685 13.8478 9.17682 13.8597 9.08489C13.4396 9.1515 13.0126 9.13251 12.5892 9.15707C12.225 9.17834 11.7815 9.25153 11.4716 9.00512L11.3649 9.26242C12.1287 9.17834 12.8971 9.17302 13.6647 9.16923V8.86761C12.9754 8.87141 12.2891 8.94206 11.6033 9.00309L11.6792 9.28395C11.9474 9.12491 12.2614 9.07831 12.5626 9.01652C12.8948 8.94839 13.2273 8.88027 13.5596 8.81215C13.7328 8.77669 13.6827 8.5242 13.5196 8.5161C12.9911 8.48951 12.4795 8.62955 11.9573 8.68324C11.7251 8.70705 11.4549 8.67311 11.2315 8.74301C10.9818 8.82101 11.0869 9.113 11.1487 9.288C11.2105 9.463 11.4857 9.39867 11.4394 9.20772C11.4224 9.13808 11.4098 9.06919 11.4062 8.99752C11.4047 8.96688 11.4042 8.93598 11.405 8.90534C11.405 8.88989 11.4057 8.8747 11.407 8.85925C11.4123 8.82987 11.409 8.82861 11.3971 8.8552L11.1755 8.68501C11.1702 8.70755 11.1649 8.73035 11.1596 8.75288C11.1223 8.91066 11.3634 9.03222 11.4351 8.86913C11.4759 8.77644 11.7058 8.79492 11.7917 8.78707C11.9472 8.77264 12.1032 8.76099 12.2592 8.75111C12.5795 8.73085 12.9001 8.7187 13.2208 8.70755L13.1807 8.41151C13.0579 8.43379 12.9379 8.46368 12.8188 8.50116C12.6282 8.56143 12.712 8.81721 12.8991 8.79189C13.0863 8.76656 13.2592 8.7306 13.4358 8.68147C13.6224 8.62955 13.5431 8.33857 13.3555 8.39074L13.356 8.3915Z" fill="white"/>
    <path d="M12.406 9.27086C12.3161 9.37241 12.2394 9.4765 12.2115 9.61224C12.1988 9.67327 12.1943 9.73633 12.1907 9.79863C12.1887 9.83409 12.1882 9.86954 12.1852 9.905L12.1816 9.94729C12.1624 10.0033 12.1745 10.0065 12.2181 9.95717L12.4007 9.98072C12.3599 9.93944 12.3343 9.88068 12.29 9.8394C12.2399 9.79281 12.1839 9.75507 12.1224 9.7257C11.9481 9.64263 11.7949 9.90246 11.9701 9.98604C12.0768 10.0369 12.1099 10.1154 12.1874 10.194C12.2381 10.2454 12.3087 10.2459 12.37 10.2175C12.483 10.1653 12.481 9.98756 12.4875 9.88347C12.4977 9.72139 12.5083 9.60895 12.619 9.4841C12.7474 9.33949 12.5349 9.1255 12.4057 9.27086H12.406Z" fill="white"/>
    <path d="M11.1944 9.47945C11.3284 9.6195 11.5576 9.56581 11.7311 9.56758C11.7893 9.56809 11.8476 9.56961 11.9058 9.57189L11.9557 9.57417C12.037 9.59266 12.0337 9.55897 11.9456 9.47363C11.9347 9.48021 11.9418 9.59595 11.9405 9.6195C11.9365 9.68712 11.9296 9.75423 11.9203 9.82134L12.2163 9.86135C12.2193 9.78107 12.2257 9.69472 12.2538 9.61849C12.2791 9.55011 12.3189 9.54656 12.3875 9.53441C12.542 9.50706 12.6992 9.4944 12.856 9.4868C13.1508 9.47262 13.4476 9.49769 13.7416 9.47768C13.9179 9.46553 14.3456 9.40956 14.3195 9.15378C14.3064 9.02335 14.1835 8.97118 14.067 9.00284C13.9169 9.04336 13.7946 9.10059 13.6342 9.08818C13.4408 9.07324 13.4418 9.37486 13.6342 9.3898C13.729 9.39715 13.8216 9.38803 13.9143 9.36752C13.9579 9.35789 14.0004 9.34523 14.0427 9.3313C14.064 9.32447 14.085 9.31712 14.1058 9.30927C14.1549 9.29534 14.1615 9.29053 14.1255 9.29534L14.0202 9.18999L14.0263 9.21405L14.0415 9.09781C14.0085 9.15732 13.8211 9.16973 13.7626 9.17454C13.656 9.18366 13.5489 9.18037 13.442 9.1791C13.2144 9.17631 12.9862 9.17555 12.7588 9.19075C12.6481 9.19809 12.5377 9.20949 12.428 9.22494C12.3308 9.23861 12.2219 9.24697 12.1345 9.29686C11.9479 9.40297 11.9225 9.6704 11.9152 9.86135C11.9089 10.0275 12.1869 10.0718 12.2112 9.90137C12.234 9.74081 12.3361 9.37436 12.1315 9.29382C12.0297 9.25381 11.8896 9.26875 11.7815 9.26647C11.7149 9.26521 11.6483 9.26521 11.5817 9.26647C11.5508 9.26698 11.4305 9.28952 11.4079 9.26622C11.2735 9.12566 11.0605 9.33915 11.1947 9.47945H11.1944Z" fill="white"/>
    <path d="M11.179 9.54322C11.2509 9.81799 11.2608 10.0854 11.292 10.3653C11.3061 10.4924 11.3398 10.6091 11.3814 10.7297C11.4287 10.8675 11.4507 10.9956 11.4533 11.1415L11.6802 11.0113C11.7027 11.0257 11.6848 11.0113 11.683 10.9855C11.6812 10.9574 11.6746 10.9287 11.667 10.9016C11.6533 10.852 11.6285 10.8057 11.6164 10.7555C11.5845 10.6241 11.6379 10.4681 11.6571 10.3369C11.6764 10.2057 11.6918 10.0839 11.705 9.95677C11.7182 9.82964 11.7063 9.68884 11.7344 9.56829L11.629 9.67364C11.6394 9.6701 11.6736 9.67136 11.6789 9.67465L11.6095 9.5845C11.6359 9.6668 11.608 9.77925 11.6004 9.86307C11.5905 9.97146 11.5822 10.0801 11.5753 10.189C11.5622 10.4065 11.5558 10.6243 11.5553 10.8421C11.5548 11.0409 11.8349 11.03 11.857 10.8421C11.88 10.6438 11.8747 10.4448 11.8863 10.2457C11.896 10.0781 11.9091 9.87903 12.0408 9.75899C11.955 9.72353 11.8691 9.68782 11.7835 9.65237C11.7736 10.2513 11.7602 10.85 11.7433 11.4487C11.7377 11.6427 12.0393 11.6427 12.0449 11.4487C12.0618 10.85 12.0753 10.251 12.0851 9.65237C12.0874 9.51637 11.9213 9.46041 11.8278 9.54575C11.488 9.85522 11.6032 10.4349 11.5558 10.8419H11.8575C11.8582 10.4825 11.8782 10.1247 11.9114 9.76684C11.9228 9.6435 11.9443 9.47079 11.8131 9.4019C11.7141 9.34999 11.5239 9.34366 11.4591 9.45154C11.4267 9.50574 11.4338 9.57867 11.43 9.63895C11.4244 9.7286 11.4173 9.81799 11.4087 9.90739C11.392 10.0809 11.3689 10.2536 11.3401 10.4253C11.3112 10.596 11.293 10.7416 11.3515 10.908C11.4001 11.0457 11.394 11.1845 11.5282 11.2709C11.6245 11.3327 11.7569 11.2519 11.7552 11.1407C11.7529 11.0012 11.742 10.8657 11.7005 10.732C11.6589 10.5983 11.6027 10.4638 11.5893 10.3179C11.5622 10.0262 11.545 9.74759 11.4702 9.46218C11.4211 9.27452 11.1304 9.35404 11.1795 9.54246L11.179 9.54322Z" fill="white"/>
    <path d="M11.9596 10.072C11.9806 10.6872 11.9943 11.3026 12.0006 11.918C12.0026 12.112 12.3043 12.1125 12.3022 11.918C12.2959 11.3026 12.2822 10.6872 12.2612 10.072C12.2546 9.87855 11.953 9.87754 11.9596 10.072Z" fill="white"/>
    <path d="M12.154 10.2174C12.1674 10.8027 12.1596 11.3882 12.1305 11.9729C12.1209 12.1669 12.4225 12.1664 12.4321 11.9729C12.461 11.3882 12.4688 10.8027 12.4556 10.2174C12.4513 10.0237 12.1497 10.0229 12.154 10.2174Z" fill="white"/>
    <path d="M11.5624 10.6765C11.5654 10.9684 11.5766 11.2602 11.5966 11.5514C11.6156 11.8242 11.6262 12.1081 11.7171 12.3684C11.7807 12.5505 12.0722 12.4722 12.0079 12.2881C11.92 12.0369 11.9121 11.7649 11.8947 11.5013C11.8772 11.2377 11.8668 10.9515 11.8638 10.6762C11.8617 10.4822 11.5601 10.4817 11.5621 10.6762L11.5624 10.6765Z" fill="white"/>
    <path d="M11.3973 11.2378C11.4381 11.383 11.4764 11.5268 11.487 11.6777C11.4976 11.8287 11.5095 11.9829 11.5343 12.1356C11.5678 12.3407 11.5652 12.7989 11.835 12.8493C12.0246 12.8845 12.1059 12.594 11.9152 12.5585C11.9335 12.5813 11.9319 12.5702 11.9107 12.5246C11.9023 12.4947 11.8952 12.4646 11.8894 12.4339C11.8765 12.3716 11.8676 12.3086 11.857 12.2458C11.8357 12.1194 11.8109 11.993 11.7995 11.8654C11.778 11.6208 11.7549 11.3954 11.6881 11.1578C11.6356 10.9712 11.3447 11.0504 11.3973 11.2381V11.2378Z" fill="white"/>
    <path d="M11.8219 11.5137C11.8373 11.9463 11.9551 12.3662 11.9787 12.7977C11.9893 12.9907 12.2909 12.992 12.2803 12.7977C12.2567 12.3662 12.1387 11.946 12.1235 11.5137C12.1167 11.3203 11.8151 11.3193 11.8219 11.5137Z" fill="white"/>
    <path d="M12.2287 11.6204C12.1713 12.0712 12.2057 12.5263 12.172 12.9786C12.1576 13.1721 12.4592 13.1713 12.4736 12.9786C12.5073 12.5263 12.4729 12.0712 12.5304 11.6204C12.5407 11.5389 12.4536 11.4705 12.3797 11.4697C12.2898 11.4687 12.2391 11.5401 12.229 11.6204H12.2287Z" fill="white"/>
    <path d="M11.9955 12.0246C11.9991 12.2041 12.0163 12.3816 12.0434 12.5592C12.0555 12.6394 12.1571 12.6845 12.2288 12.6645C12.3149 12.6405 12.3465 12.5602 12.3341 12.4791C12.3111 12.3285 12.2999 12.1768 12.2969 12.0246C12.2928 11.8308 11.9915 11.8301 11.9953 12.0246H11.9955Z" fill="white"/>
    <path d="M11.808 12.4354C11.8118 12.5734 11.9397 12.6876 12.0517 12.7524C12.1201 12.7919 12.2198 12.7704 12.2581 12.6982C12.2963 12.6261 12.2768 12.5341 12.2039 12.4918C12.1884 12.483 12.174 12.4728 12.1591 12.463C12.1418 12.4513 12.1763 12.4794 12.1616 12.4645C12.1547 12.4574 12.1466 12.4513 12.1396 12.4445C12.1282 12.4333 12.1178 12.4217 12.1074 12.4098C12.0892 12.389 12.113 12.4224 12.1059 12.4072C12.1036 12.404 12.1016 12.4007 12.0995 12.3971C12.0897 12.3789 12.093 12.3915 12.1094 12.4348C12.1071 12.3561 12.0415 12.2804 11.9587 12.2842C11.8759 12.288 11.8055 12.3505 11.808 12.4348V12.4354Z" fill="white"/>
    <path d="M11.7377 12.8304C11.8306 12.9537 11.9263 13.0629 12.0441 13.1629C12.1619 13.263 12.2624 13.3891 12.3799 13.4944C12.6266 13.7155 12.9191 13.893 13.1893 14.084C13.3481 14.1962 13.499 13.9348 13.3415 13.8236C13.0926 13.6479 12.8203 13.4851 12.5932 13.2812C12.486 13.1852 12.3976 13.071 12.289 12.9763C12.1804 12.8816 12.0846 12.7924 11.9983 12.6779C11.8828 12.525 11.6209 12.6749 11.7379 12.8302L11.7377 12.8304Z" fill="white"/>
    <path d="M12.2941 12.695C12.7254 13.0996 13.1708 13.4886 13.6302 13.8614C13.7796 13.9827 13.9941 13.7705 13.8435 13.6482C13.3841 13.2757 12.9386 12.8867 12.5073 12.4817C12.366 12.349 12.1523 12.5617 12.2941 12.695Z" fill="white"/>
    <path d="M12.2945 13.1518C12.5007 13.2688 12.6906 13.426 12.8841 13.5628C13.0925 13.7102 13.3012 13.8576 13.5096 14.0052L13.6618 13.7449C13.4648 13.6074 13.2703 13.4665 13.0773 13.3235C12.9872 13.2566 12.8975 13.1895 12.8079 13.1221C12.738 13.0697 12.6139 13.0044 12.5967 12.9124C12.561 12.722 12.2705 12.8025 12.3059 12.9927C12.349 13.2227 12.6385 13.3703 12.8094 13.498C13.0404 13.6704 13.2731 13.8403 13.5094 14.0052C13.6692 14.1166 13.8186 13.856 13.6616 13.7449C13.4532 13.5975 13.2445 13.4501 13.0361 13.3024C12.8426 13.1654 12.6526 13.0084 12.4465 12.8914C12.2776 12.7954 12.1254 13.0558 12.2943 13.1518H12.2945Z" fill="white"/>
    <path d="M12.4698 12.7833C12.6638 12.7833 12.664 12.4817 12.4698 12.4817C12.2755 12.4817 12.2755 12.7833 12.4698 12.7833Z" fill="white"/>
    <path d="M12.2337 11.9977C12.4277 11.9977 12.4279 11.6961 12.2337 11.6961C12.0395 11.6961 12.0395 11.9977 12.2337 11.9977Z" fill="white"/>
    <path d="M12.3882 12.7299C12.5468 12.8593 12.7116 12.9793 12.8854 13.0875C13.0297 13.1774 13.1941 12.9679 13.068 12.8507C12.9841 12.7724 12.8935 12.7043 12.7944 12.6466C12.6516 12.5632 12.4733 12.7752 12.6119 12.8833C12.758 12.9976 12.9076 13.1065 13.0629 13.208C13.2037 13.2999 13.382 13.0773 13.2455 12.9712C13.1958 12.9325 13.146 12.894 13.0963 12.8552C12.9474 12.7395 12.7448 12.9239 12.8831 13.0685C12.9887 13.1786 13.1075 13.2731 13.2379 13.3524C13.3683 13.4316 13.5273 13.2738 13.4443 13.146C13.4035 13.0834 13.3572 13.0363 13.2916 12.9996C13.1168 12.9018 12.9902 13.1449 13.1394 13.2599C13.4524 13.5013 13.7353 13.7788 14.0105 14.063C14.1458 14.2025 14.3588 13.9893 14.2238 13.8497C13.9295 13.5458 13.6261 13.2576 13.2916 12.9996L13.1394 13.2599C13.1596 13.2665 13.1743 13.2794 13.1839 13.2982L13.3903 13.0918C13.2809 13.0254 13.1852 12.9477 13.0966 12.8552L12.8833 13.0685L13.0325 13.1845L13.2151 12.9477C13.0814 12.8603 12.9507 12.7686 12.8251 12.6701L12.6425 12.9069C12.72 12.9522 12.7891 13.0026 12.855 13.0639L13.0376 12.8271C12.8856 12.7324 12.74 12.6298 12.6015 12.5166C12.4523 12.3948 12.2378 12.607 12.3882 12.7299Z" fill="white"/>
    <path d="M13.8441 13.8664C14.1209 14.1052 14.3511 14.3876 14.5689 14.6796C14.6758 14.8227 14.7877 14.9645 14.8759 15.12C14.9691 15.2844 15.0488 15.4571 15.1337 15.626C15.2185 15.7949 15.4809 15.647 15.394 15.4738C15.3072 15.3006 15.2241 15.1175 15.1251 14.9481C15.0314 14.7875 14.9141 14.6404 14.8029 14.492C14.5778 14.1919 14.3425 13.8991 14.0576 13.6532C13.9112 13.5271 13.6973 13.7393 13.8444 13.8664H13.8441Z" fill="white"/>
    <path d="M13.5824 13.6935C13.8458 13.8609 14.0879 14.0542 14.3102 14.2732C14.4323 14.3933 14.6321 14.2403 14.547 14.0906C14.4619 13.941 14.2928 13.848 14.1476 13.7761C14.0294 13.7173 13.8255 13.6211 13.7224 13.7546C13.6194 13.888 13.7047 14.08 13.7885 14.1914C13.9002 14.3401 14.0686 14.4143 14.2064 14.5333C14.332 14.6417 14.5321 14.5057 14.4432 14.3507C14.3391 14.1689 14.1654 14.0684 13.9706 14.005C13.7759 13.9417 13.535 13.868 13.3221 13.9075C13.1845 13.9331 13.1881 14.1167 13.2861 14.1831C13.6224 14.4102 13.9405 14.6997 14.1856 15.0251C14.2793 15.1497 14.5217 15.0851 14.4612 14.9089C14.3778 14.6665 14.3718 14.3874 14.1185 14.2512C13.9476 14.1593 13.7956 14.4183 13.9663 14.5115C14.096 14.5822 14.2416 14.6265 14.3619 14.7136C14.4759 14.7962 14.5622 14.9089 14.6346 15.0279C14.7354 15.1933 14.9963 15.0421 14.895 14.8757C14.8091 14.7349 14.7071 14.6045 14.5777 14.5012C14.4379 14.3897 14.2735 14.3355 14.1185 14.2509L13.9663 14.5113C14.1238 14.5959 14.1185 14.838 14.1704 14.9887C14.2624 14.9499 14.354 14.9112 14.446 14.8724C14.1677 14.5027 13.821 14.1808 13.4383 13.9222C13.4264 14.0142 13.4142 14.1058 13.4023 14.1978C13.5381 14.1724 13.7174 14.2433 13.8463 14.2816C13.9752 14.3198 14.1102 14.3753 14.1828 14.5024L14.4196 14.3198C14.3333 14.2454 14.2368 14.1881 14.1456 14.1203C14.0864 14.0762 13.9552 13.9757 13.9861 13.8858L13.9167 13.9759C13.842 14.0099 13.9207 14.0035 13.9569 14.0182C14.0015 14.0364 14.0436 14.0615 14.0846 14.0863C14.152 14.1269 14.2464 14.1727 14.2862 14.2426L14.523 14.06C14.2829 13.8237 14.0185 13.614 13.7341 13.4332C13.5697 13.3289 13.4185 13.5897 13.5819 13.6935H13.5824Z" fill="white"/>
    <path d="M13.5078 14.3889C13.6955 14.5211 13.8378 14.7054 13.989 14.8756C14.1516 15.0582 14.3367 15.2081 14.5309 15.3555C14.6773 15.4665 14.8133 15.2403 14.7135 15.1187C14.5586 14.9296 14.3739 14.7713 14.2281 14.5725C14.1144 14.4178 13.8527 14.5679 13.9677 14.7247C14.0483 14.8343 14.1326 14.9415 14.2238 15.0428C14.3149 15.1441 14.416 15.2292 14.5003 15.3322L14.6829 15.0954C14.4856 14.946 14.3096 14.7867 14.147 14.6001C13.9968 14.4279 13.8477 14.2612 13.6598 14.1288C13.5007 14.0169 13.35 14.2782 13.5076 14.3891L13.5078 14.3889Z" fill="white"/>
    <path d="M13.5818 14.5143C13.7294 14.6698 13.8819 14.8215 14.0113 14.9924C14.1407 15.1634 14.266 15.3353 14.3934 15.5065C14.5079 15.6605 14.7698 15.5103 14.6538 15.3543C14.517 15.1702 14.382 14.9846 14.243 14.8025C14.1065 14.6237 13.9495 14.4639 13.7948 14.3011C13.6608 14.16 13.4478 14.3735 13.5815 14.5143H13.5818Z" fill="white"/>
    <path d="M14.2679 14.8564C14.4551 15.0955 14.6845 15.3021 14.8053 15.5865C14.881 15.7646 15.1409 15.6111 15.0656 15.4343C14.9352 15.1274 14.6832 14.9015 14.4809 14.6432C14.3614 14.4905 14.1494 14.7052 14.2677 14.8564H14.2679Z" fill="white"/>
    <path d="M13.9845 15.0068C14.121 15.1995 14.238 15.394 14.3241 15.6143C14.3634 15.7149 14.3988 15.8167 14.4353 15.9182C14.4687 16.0109 14.4892 16.1284 14.5753 16.1862C14.6295 16.2226 14.7139 16.2084 14.7579 16.1626L14.7605 16.1601C14.8952 16.0203 14.6822 15.8068 14.5472 15.9468L14.5447 15.9494L14.7273 15.9258L14.7207 15.9213L14.7901 16.0114C14.7144 15.8121 14.6483 15.609 14.5652 15.4127C14.4821 15.2165 14.3707 15.0326 14.2448 14.8548C14.1334 14.6978 13.8718 14.8482 13.9845 15.007V15.0068Z" fill="white"/>
    <path d="M14.5576 15.4665C14.593 15.6972 14.6551 15.9188 14.7447 16.1343C14.8182 16.3108 15.1102 16.2333 15.0355 16.054C14.9458 15.8385 14.8838 15.6169 14.8483 15.3862C14.8189 15.195 14.5285 15.2763 14.5576 15.4665Z" fill="white"/>
    <path d="M14.8714 15.5394C14.9182 15.7294 14.9653 15.9196 15.0122 16.1095C15.0588 16.2977 15.3495 16.2181 15.3029 16.0292C15.2563 15.8403 15.209 15.6491 15.1621 15.4592C15.1153 15.2692 14.8248 15.3505 14.8714 15.5394Z" fill="white"/>
    <path d="M14.78 15.1844L15.0233 15.4918C15.1026 15.5918 15.1887 15.6688 15.1915 15.801C15.194 15.9221 15.2072 16.0302 15.1454 16.1373C15.0813 16.2488 15.016 16.3615 14.9372 16.4633C14.8197 16.6147 15.0317 16.8297 15.1505 16.6765C15.25 16.5481 15.3384 16.4124 15.4171 16.27C15.5015 16.1176 15.4967 15.9717 15.4931 15.801C15.4896 15.6405 15.4417 15.5384 15.3432 15.413C15.227 15.2654 15.1099 15.1183 14.9932 14.9709C14.8729 14.8187 14.6607 15.0334 14.78 15.1841V15.1844Z" fill="white"/>
    <path d="M15.1018 15.5748C15.1081 15.5799 15.114 15.5867 15.1208 15.5913C15.1117 15.5852 15.1112 15.5753 15.1203 15.5905C15.1246 15.5979 15.1289 15.6052 15.1327 15.6125C15.1345 15.6161 15.1492 15.6477 15.1408 15.6293C15.1314 15.6082 15.1532 15.6586 15.1507 15.6526C15.1557 15.6645 15.1606 15.6764 15.1659 15.688C15.1737 15.7055 15.1823 15.7219 15.1925 15.7379C15.235 15.8043 15.3285 15.8374 15.3989 15.7921C15.4652 15.7493 15.4984 15.6569 15.4531 15.5857C15.4427 15.5695 15.4346 15.553 15.4265 15.5358C15.4186 15.5196 15.4356 15.5576 15.4244 15.531C15.4171 15.5133 15.4098 15.4953 15.4016 15.4776C15.3819 15.4343 15.3528 15.3912 15.3153 15.3616C15.2535 15.3127 15.1616 15.2967 15.1021 15.3616C15.0522 15.416 15.036 15.5224 15.1021 15.5748H15.1018Z" fill="white"/>
    <path d="M15.0811 15.5173C15.1178 15.5814 15.1958 15.6969 15.128 15.7635C14.9894 15.9 15.2027 16.1132 15.3412 15.9767C15.52 15.8004 15.4516 15.5571 15.3412 15.3651C15.2444 15.1969 14.9839 15.3486 15.0808 15.5173H15.0811Z" fill="white"/>
    <path d="M14.3124 15.4488C14.3195 15.6365 14.3264 15.8244 14.3132 16.0118C14.3 16.1992 14.2509 16.3823 14.1952 16.5644C14.1395 16.7465 14.4289 16.8298 14.4859 16.6446C14.6082 16.2463 14.6293 15.8631 14.6141 15.4488C14.607 15.2553 14.3054 15.2543 14.3124 15.4488Z" fill="white"/>
    <path d="M14.5808 16.0063C14.5173 16.2236 14.4281 16.426 14.3119 16.6202C14.2119 16.7871 14.4725 16.9388 14.5722 16.7724C14.7011 16.5574 14.8014 16.3272 14.8716 16.0864C14.926 15.8997 14.6353 15.82 14.5808 16.0061V16.0063Z" fill="white"/>
    <path d="M14.8038 16.2238C14.7678 16.3416 14.7255 16.4566 14.6741 16.5685C14.6399 16.6424 14.6531 16.7308 14.7283 16.7749C14.7934 16.8129 14.9003 16.7951 14.9347 16.7207C14.9973 16.5852 15.0515 16.4467 15.0948 16.3041C15.1515 16.118 14.8605 16.0384 14.804 16.2238H14.8038Z" fill="white"/>
    <path d="M14.9684 16.2206C14.8775 16.4551 14.7496 16.6757 14.5911 16.8709C14.4697 17.0204 14.6817 17.2349 14.8043 17.0842C14.998 16.8456 15.1482 16.5873 15.2594 16.3006C15.3295 16.1196 15.038 16.0411 14.9686 16.2204L14.9684 16.2206Z" fill="white"/>
    <path d="M15.0023 16.4299C14.9648 16.708 14.6969 16.9539 14.4912 17.1238C14.3416 17.2474 14.5558 17.4596 14.7045 17.337C14.9468 17.137 15.249 16.8366 15.293 16.5102C15.3039 16.4289 15.2735 16.3494 15.1877 16.3248C15.1175 16.3048 15.0132 16.3496 15.0023 16.4302V16.4299Z" fill="white"/>
    <path d="M14.2949 15.9269C14.288 16.0016 14.2222 16.0946 14.1878 16.1604C14.146 16.2407 14.1009 16.3195 14.0523 16.3957C13.9484 16.5583 13.8238 16.7049 13.6987 16.8513C13.5827 16.987 13.7253 17.1547 13.8813 17.0881C14.1953 16.9541 14.5114 16.8249 14.8459 16.7512C14.8072 16.6593 14.7685 16.5676 14.7297 16.4757C14.5289 16.6274 14.3372 16.7887 14.1566 16.964C14.0171 17.0992 14.2303 17.3124 14.3698 17.1772C14.5319 17.0202 14.7018 16.872 14.8819 16.7361C15.0144 16.6363 14.9422 16.4215 14.7657 16.4605C14.4058 16.54 14.067 16.6839 13.7291 16.8277L13.9117 17.0645C14.0632 16.8872 14.2138 16.7084 14.3364 16.5096C14.4418 16.3385 14.5778 16.1298 14.5962 15.9269C14.6147 15.7241 14.3121 15.735 14.2946 15.9269H14.2949Z" fill="white"/>
    <path d="M14.1574 16.1295C14.0691 16.3075 13.9047 16.4823 13.7591 16.6152C13.5955 16.7647 13.3911 16.8566 13.1916 16.9475C13.0153 17.028 13.1683 17.2879 13.3438 17.2078C13.5689 17.1053 13.788 16.9966 13.9723 16.8285C14.1354 16.6793 14.3188 16.481 14.4178 16.2817C14.5039 16.1085 14.2438 15.9555 14.1574 16.1295Z" fill="white"/>
    <path d="M12.7607 17.7429C13.3351 17.6399 13.8446 17.3433 14.3737 17.1131C14.5297 17.0452 14.4188 16.7836 14.2574 16.8376C13.9776 16.9313 13.6826 16.9634 13.4083 17.0751C13.15 17.1802 12.9081 17.3223 12.6437 17.4117C12.4817 17.4666 12.5118 17.6976 12.6838 17.7077C13.0707 17.7308 13.4465 17.6315 13.815 17.5246C13.9986 17.4714 14.184 17.4193 14.363 17.3517C14.4317 17.3256 14.5013 17.2985 14.5639 17.2595C14.6404 17.2121 14.7042 17.1486 14.7832 17.1047C14.9531 17.0108 14.8012 16.7504 14.631 16.8444C14.4955 16.9194 14.3939 17.0212 14.2445 17.0746C14.0769 17.1346 13.9057 17.1843 13.7347 17.2339C13.3906 17.3337 13.0454 17.4279 12.6838 17.4061C12.6972 17.5049 12.7106 17.6036 12.7238 17.7022C12.9889 17.6123 13.2305 17.4722 13.4883 17.3656C13.7621 17.2524 14.0579 17.2217 14.3375 17.128C14.2987 17.0361 14.26 16.9444 14.2212 16.8525C13.715 17.0728 13.2303 17.3534 12.6802 17.4519C12.4895 17.4861 12.5703 17.7769 12.7605 17.7427L12.7607 17.7429Z" fill="white"/>
    <path d="M14.7328 16.9478C14.571 17.1263 14.3968 17.2382 14.1658 17.3081C13.9262 17.3806 13.6839 17.4732 13.4331 17.4958C13.2414 17.513 13.2397 17.8146 13.4331 17.7974C13.7274 17.7711 14.0098 17.6738 14.2904 17.5857C14.5505 17.5041 14.7632 17.3628 14.9461 17.1612C15.0762 17.0176 14.8635 16.8039 14.7328 16.948V16.9478Z" fill="white"/>
    <path d="M13.2078 16.9323C12.9533 17.0156 12.7198 17.1719 12.4726 17.2775C12.2254 17.3831 11.9689 17.4882 11.7372 17.6348C11.6171 17.7108 11.6571 17.9235 11.8131 17.9157C12.3194 17.8906 12.8256 17.8655 13.3316 17.8405L13.2916 17.5444C12.9072 17.6911 12.5245 17.8453 12.1337 17.9747C11.9504 18.0355 12.0289 18.3267 12.214 18.2654C12.6048 18.136 12.9875 17.9818 13.3719 17.8352C13.5198 17.7787 13.5142 17.53 13.3319 17.5391C12.8256 17.5642 12.3194 17.5893 11.8134 17.6143L11.8894 17.8952C12.1084 17.7566 12.346 17.6561 12.5838 17.5553C12.6995 17.5062 12.815 17.4568 12.9277 17.4013C13.0475 17.3423 13.1604 17.2651 13.2878 17.2233C13.4714 17.1633 13.3929 16.872 13.2075 16.9326L13.2078 16.9323Z" fill="white"/>
    <path d="M11.6753 18.1692C12.0334 18.1239 12.3918 18.0829 12.7509 18.0464C12.9421 18.0269 12.9441 17.7253 12.7509 17.7448C12.392 17.7815 12.0334 17.8223 11.6753 17.8676C11.5941 17.878 11.5254 17.9297 11.5247 18.0183C11.5239 18.092 11.5946 18.1794 11.6753 18.169V18.1692Z" fill="white"/>
    <path d="M11.7032 18.4663C12.0821 18.3553 12.4655 18.2624 12.8529 18.1877C13.0434 18.151 12.9626 17.8602 12.7727 17.897C12.3852 17.9717 12.0018 18.0646 11.6229 18.1755C11.437 18.23 11.516 18.521 11.7032 18.4663Z" fill="white"/>
    <path d="M11.7265 18.5413C12.2067 18.4881 12.6835 18.3754 13.1265 18.1817C13.5985 17.9753 14.0632 17.7509 14.531 17.5351C14.707 17.4538 14.554 17.194 14.3788 17.2748C13.9387 17.4779 13.5 17.6843 13.0584 17.8838C12.6405 18.0728 12.1824 18.1893 11.7265 18.2397C11.5358 18.2607 11.5335 18.5626 11.7265 18.5413Z" fill="white"/>
    <path d="M9.26903 18.6965C10.0941 18.6691 10.9189 18.6263 11.7425 18.5681C11.935 18.5544 11.9365 18.2528 11.7425 18.2664C10.9189 18.3247 10.0944 18.3675 9.26903 18.3948C9.07554 18.4012 9.07453 18.7028 9.26903 18.6965Z" fill="white"/>
    <path d="M12.6584 17.1346C12.5275 17.2215 12.3677 17.2564 12.2256 17.3225C12.077 17.3917 11.9331 17.4639 11.7774 17.5165C11.4631 17.6231 11.1404 17.6958 10.8371 17.8333C10.6605 17.9134 10.8138 18.1732 10.9893 18.0937C11.2954 17.9552 11.6285 17.8929 11.943 17.7774C12.0929 17.7224 12.233 17.6495 12.3778 17.5831C12.5227 17.5168 12.6779 17.4834 12.8106 17.3952C12.9717 17.2884 12.8208 17.0273 12.6584 17.1349V17.1346Z" fill="white"/>
    <path d="M12.4771 17.198C12.2796 17.2532 12.0932 17.3535 11.9025 17.428C11.6968 17.508 11.4887 17.5817 11.2805 17.6551C11.0987 17.7194 11.1769 18.0107 11.3608 17.9458C11.5689 17.8724 11.7769 17.7987 11.9828 17.7187C12.1735 17.6445 12.3601 17.5439 12.5574 17.4887C12.744 17.4366 12.6648 17.1456 12.4771 17.198Z" fill="white"/>
    <path d="M12.0976 17.266C11.5596 17.4868 11.0121 17.6828 10.4562 17.8538C10.2714 17.9105 10.3501 18.2017 10.5365 18.1445C11.0924 17.9738 11.6399 17.7778 12.1778 17.5567C12.3549 17.484 12.2774 17.1923 12.0976 17.266Z" fill="white"/>
    <path d="M11.7785 17.7789C11.2819 17.9787 10.7584 18.0889 10.2299 18.1626C10.0612 18.1861 10.1022 18.4652 10.2699 18.4586C10.5492 18.448 10.8283 18.4371 11.1076 18.4265C11.2391 18.4214 11.3705 18.4163 11.5019 18.4113C11.6255 18.4065 11.7805 18.4252 11.8995 18.3887C11.9775 18.3649 12.0269 18.2839 12.0049 18.2034L12.0021 18.193C11.9507 18.0061 11.6597 18.0856 11.7114 18.2733L11.7142 18.2836L11.8195 18.0983C11.7719 18.113 11.7 18.1023 11.6498 18.1043C11.5842 18.1069 11.5184 18.1094 11.4528 18.1119C11.3214 18.117 11.1899 18.1221 11.0585 18.1271C10.7956 18.1373 10.5328 18.1474 10.2699 18.1575L10.3099 18.4536C10.8387 18.3799 11.3619 18.2697 11.8585 18.0699C12.0363 17.9982 11.9586 17.7065 11.7782 17.7792L11.7785 17.7789Z" fill="white"/>
    <path d="M11.6042 17.4285C11.1004 17.572 10.5975 17.724 10.0791 17.8043C9.88789 17.8339 9.96918 18.1244 10.1594 18.095C10.678 18.0147 11.181 17.8628 11.6844 17.7192C11.8708 17.666 11.7916 17.375 11.6042 17.4285Z" fill="white"/>
    <path d="M11.5376 17.412C10.8948 17.5361 10.2501 17.6506 9.60376 17.7554C9.41281 17.7866 9.49385 18.077 9.68404 18.0461C10.3303 17.9413 10.9748 17.8266 11.6178 17.7027C11.8083 17.666 11.7275 17.3753 11.5376 17.412Z" fill="white"/>
    <path d="M9.94898 17.9803C10.0776 17.9615 10.2065 17.9428 10.3362 17.9337C10.3909 17.9299 10.4484 17.9243 10.5031 17.9299C10.5289 17.9316 10.554 17.9364 10.5786 17.9445C10.612 17.9666 10.6208 17.9694 10.6057 17.9526L10.5905 17.8364C10.5887 17.8407 10.5206 17.901 10.4942 17.9205C10.4421 17.9587 10.383 17.9896 10.323 18.0132C10.1845 18.0674 10.0346 18.0881 9.88769 18.1038V18.4055C10.284 18.3584 10.6791 18.3021 11.0726 18.235L10.9564 17.9595L10.9323 17.9724C10.7611 18.0638 10.9131 18.3242 11.0845 18.2327L11.1086 18.2198C11.2692 18.1342 11.1512 17.9172 10.9924 17.9443C10.6254 18.0068 10.2572 18.06 9.88744 18.1038C9.69775 18.1264 9.6937 18.4262 9.88744 18.4055C10.0951 18.3832 10.3015 18.354 10.4932 18.2669C10.63 18.2046 10.8465 18.078 10.8809 17.9167C10.9242 17.7154 10.6517 17.6374 10.5028 17.6282C10.2931 17.6153 10.0751 17.6591 9.86844 17.6893C9.67724 17.7171 9.75854 18.0076 9.94873 17.98L9.94898 17.9803Z" fill="white"/>
    <path d="M7.56988 18.3873H7.57241C7.55899 18.3888 7.54556 18.3906 7.5324 18.3923C7.53923 18.3916 7.54607 18.3916 7.55291 18.3923L7.5129 18.387C7.5172 18.3875 7.52125 18.3885 7.52556 18.3896C7.54556 18.3959 7.56557 18.3966 7.58558 18.3923C7.60558 18.3913 7.62432 18.3855 7.64155 18.3744C7.65902 18.365 7.6732 18.3518 7.68384 18.3356C7.69726 18.3212 7.70612 18.304 7.71094 18.2845L7.71625 18.2444C7.71625 18.2173 7.70942 18.1918 7.69574 18.1685L7.67219 18.1381C7.65345 18.1193 7.63116 18.1064 7.60558 18.0993C7.58684 18.0943 7.56709 18.092 7.54784 18.0907C7.5286 18.0895 7.50834 18.0943 7.48985 18.0968C7.47035 18.1014 7.45313 18.1105 7.43869 18.1239C7.42223 18.1345 7.40932 18.1487 7.39995 18.1662C7.3888 18.1834 7.38298 18.2022 7.38197 18.2222C7.37741 18.2422 7.37842 18.2622 7.38475 18.2822L7.39995 18.3181C7.41337 18.3407 7.43135 18.3589 7.45414 18.3723L7.4901 18.3875C7.51695 18.3946 7.54354 18.3946 7.57038 18.3875L7.56988 18.3873Z" fill="white"/>
    <path d="M7.52007 18.3762C7.71406 18.3762 7.71431 18.0746 7.52007 18.0746C7.32583 18.0746 7.32583 18.3762 7.52007 18.3762Z" fill="white"/>
    <path d="M7.57549 18.3796C7.88952 18.3426 8.19645 18.2707 8.50643 18.2102C8.81641 18.1497 9.11828 18.1474 9.41306 18.0643C9.55564 18.0241 9.69138 17.9904 9.84055 17.9861C9.89246 17.9845 10.0383 18.0122 10.0791 17.9881L10.1037 17.9909C10.0865 17.9114 10.0657 17.8901 10.0409 17.9273C10.0209 17.9367 9.9925 17.9777 9.97578 17.9914C9.76913 18.1593 9.44396 18.2016 9.18868 18.2284L9.26466 18.5093C9.51284 18.3768 9.77521 18.2872 10.0518 18.2358C10.2425 18.2003 10.1614 17.9103 9.97148 17.945C9.74912 17.9858 9.52297 17.9815 9.29809 17.9982C9.09903 18.0129 8.91011 18.0519 8.71815 18.1048C8.50516 18.1633 8.28965 18.2079 8.06932 18.2272C7.89711 18.2421 7.64108 18.1975 7.49141 18.3034C7.32376 18.4219 7.41417 18.624 7.5765 18.6896C7.76365 18.7653 8.00981 18.7468 8.20785 18.7435C8.65433 18.7362 9.09751 18.6731 9.54374 18.6622C9.70607 18.6582 9.75799 18.3948 9.58375 18.3662C9.28998 18.3178 8.9947 18.2917 8.69687 18.2917C8.50289 18.2917 8.50263 18.5934 8.69687 18.5934C8.96734 18.5934 9.23655 18.6131 9.50347 18.6569L9.54349 18.3609C9.22085 18.3687 8.89998 18.4029 8.57835 18.4249C8.4221 18.4356 8.26559 18.4434 8.10883 18.4429C8.02652 18.4427 7.94422 18.4401 7.86217 18.4346C7.83127 18.4325 7.69401 18.4179 7.69477 18.4211L7.67957 18.5374C7.66767 18.5559 7.76061 18.5427 7.77935 18.5425C7.83532 18.5412 7.89104 18.5404 7.947 18.5374C8.04501 18.5321 8.14277 18.5224 8.24001 18.5098C8.44413 18.4832 8.64243 18.4384 8.84072 18.3837C9.23933 18.2743 9.64783 18.3097 10.0515 18.2358L9.97122 17.945C9.66986 18.0013 9.38242 18.1046 9.11195 18.2489C8.98609 18.3163 9.03674 18.5457 9.18792 18.5298C9.51715 18.4951 9.89196 18.4389 10.1594 18.2272C10.2761 18.1347 10.4144 17.9825 10.3394 17.8237C10.2645 17.6649 10.0563 17.6832 9.91146 17.6834C9.71848 17.6834 9.53817 17.7151 9.3533 17.7673C9.16842 17.8194 8.97089 17.8341 8.77462 17.8605C8.37145 17.9146 7.97917 18.0301 7.57498 18.0777C7.38454 18.1003 7.38226 18.4019 7.57498 18.3794L7.57549 18.3796Z" fill="white"/>
    <path d="M7.37112 18.2168C7.17638 18.2315 6.98137 18.2421 6.78637 18.2484C6.738 18.2499 6.73775 18.3254 6.78637 18.3239C6.98163 18.3176 7.17638 18.3069 7.37112 18.2922C7.41924 18.2887 7.4195 18.2132 7.37112 18.2168Z" fill="white"/>
    <path d="M7.44885 18.5749L7.29994 18.5936C7.27968 18.5962 7.26246 18.6091 7.26221 18.6314C7.26221 18.6498 7.27968 18.6716 7.29994 18.6691L7.44885 18.6503C7.46911 18.6478 7.48633 18.6349 7.48659 18.6126C7.48659 18.5941 7.46911 18.5723 7.44885 18.5749Z" fill="white"/>
    <path d="M7.88555 17.9969C7.71461 17.9967 7.54442 17.9876 7.37449 17.9696C7.32638 17.9645 7.32663 18.04 7.37449 18.045C7.54442 18.0628 7.71461 18.0719 7.88555 18.0724C7.93417 18.0724 7.93417 17.9972 7.88555 17.9969Z" fill="white"/>
    <path d="M15.7825 5.11571C15.8529 5.54421 15.8734 5.97701 15.8453 6.41032C15.8422 6.45869 15.9174 6.45869 15.9207 6.41032C15.9493 5.97018 15.9268 5.53079 15.8551 5.09571C15.8473 5.04784 15.7746 5.0681 15.7825 5.11571Z" fill="white"/>
    <path d="M16.0494 5.78023C16.051 6.10996 16.0525 6.43969 16.054 6.76942C16.055 6.96341 16.3564 6.96392 16.3556 6.76942C16.3541 6.43969 16.3526 6.10996 16.3511 5.78023C16.35 5.58624 16.0487 5.58574 16.0494 5.78023Z" fill="white"/>
    <path d="M15.8786 5.22736C15.8778 5.2694 15.8798 5.31144 15.8844 5.35322C15.889 5.39501 15.8981 5.42945 15.9285 5.45984C15.9545 5.48593 15.9976 5.50568 16.0351 5.50391C16.0726 5.50213 16.1146 5.48947 16.1417 5.45984C16.167 5.43224 16.1901 5.39222 16.1858 5.35322C16.1812 5.31144 16.1792 5.2694 16.1799 5.22736C16.1812 5.14835 16.1098 5.07288 16.0293 5.07668C15.9487 5.08047 15.8798 5.14303 15.8786 5.22736Z" fill="white"/>
    <path d="M16.0099 5.36366C16.2039 5.36366 16.2042 5.06204 16.0099 5.06204C15.8157 5.06204 15.8157 5.36366 16.0099 5.36366Z" fill="white"/>
    <path d="M15.7711 5.29558C15.7919 5.89502 15.7959 6.49496 15.7833 7.09466C15.7792 7.28865 16.0806 7.28865 16.0849 7.09466C16.0975 6.49496 16.0937 5.89527 16.0727 5.29558C16.0659 5.1021 15.7645 5.10108 15.7711 5.29558Z" fill="white"/>
    <path d="M15.9254 5.49991C15.9368 5.57993 15.95 5.65945 15.9652 5.73872C15.9933 5.88459 16.2248 5.88029 16.2559 5.73872C16.2896 5.58627 16.2909 5.44115 16.264 5.28769L16.0787 5.47306C16.1911 5.51738 16.3058 5.65262 16.3306 5.76683C16.361 5.90612 16.3425 6.04237 16.2957 6.17532L16.5712 6.13936C16.479 5.99906 16.4223 5.85294 16.3942 5.68731C16.3615 5.49636 16.0711 5.5774 16.1035 5.76759C16.1359 5.95778 16.206 6.13202 16.3109 6.29156C16.3846 6.40375 16.5429 6.37919 16.5864 6.2556C16.6589 6.05047 16.6715 5.81495 16.5996 5.60729C16.5353 5.42191 16.3387 5.25324 16.1589 5.18233C16.0412 5.13599 15.9558 5.26768 15.9736 5.36771C15.9913 5.46775 15.987 5.56145 15.9655 5.65844H16.2562C16.241 5.57917 16.2276 5.49965 16.2164 5.41963C16.1893 5.22817 15.8989 5.30972 15.9257 5.49991H15.9254Z" fill="white"/>
    <path d="M16.375 5.83572C16.4542 6.11531 16.5092 6.40122 16.4902 6.69322C16.4712 6.98522 16.3636 7.24201 16.2597 7.50184C16.1878 7.6819 16.4793 7.76016 16.5505 7.58212C16.6657 7.29393 16.7713 7.00573 16.7918 6.69322C16.8126 6.37666 16.7518 6.05858 16.6659 5.75544C16.613 5.56905 16.322 5.64831 16.3752 5.83572H16.375Z" fill="white"/>
    <path d="M16.2522 6.36227C16.2353 6.56411 16.2272 6.76595 16.2277 6.96855C16.2282 7.17115 16.5298 7.16279 16.5293 6.96855C16.5288 6.77431 16.5369 6.56411 16.5539 6.36227C16.5708 6.16043 16.2685 6.17005 16.2522 6.36227Z" fill="white"/>
    <path d="M16.487 6.07831C16.501 6.09527 16.4928 6.15301 16.4936 6.1753C16.4956 6.23279 16.4961 6.29028 16.4959 6.34776C16.4956 6.45463 16.4913 6.56125 16.4847 6.66787C16.4726 6.86161 16.7742 6.86085 16.7864 6.66787C16.796 6.51187 16.8 6.35587 16.796 6.19987C16.7927 6.07198 16.7838 5.96688 16.7005 5.86507C16.5777 5.71464 16.3655 5.92914 16.4873 6.07831H16.487Z" fill="white"/>
    <path d="M16.0133 6.74986C15.9854 7.08719 15.8917 7.41464 15.7392 7.71651C15.6519 7.88923 15.912 8.04219 15.9996 7.86872C16.1776 7.51695 16.2822 7.14265 16.3149 6.74986C16.3308 6.55638 16.0292 6.55765 16.0133 6.74986Z" fill="white"/>
    <path d="M16.2152 7.08642C16.1075 7.36272 15.9948 7.64357 15.7884 7.86212C15.6555 8.00318 15.8682 8.21693 16.0017 8.07536C16.2455 7.81679 16.3787 7.49289 16.5059 7.16645C16.5763 6.98563 16.2848 6.90712 16.2152 7.08617V7.08642Z" fill="white"/>
    <path d="M16.5638 6.76008C16.5421 7.01915 16.538 7.33343 16.4175 7.56997C16.36 7.68241 16.2632 7.76649 16.1736 7.85285C16.0685 7.95389 15.9626 8.05418 15.856 8.15371C15.7139 8.28641 15.9274 8.49914 16.0692 8.36694C16.2845 8.16611 16.5692 7.95921 16.6955 7.68621C16.8257 7.40535 16.8401 7.06448 16.8657 6.76033C16.8819 6.56685 16.5803 6.56811 16.5641 6.76033L16.5638 6.76008Z" fill="white"/>
    <path d="M15.7666 7.13273C15.6668 7.5511 15.4657 7.93072 15.1712 8.245C15.1205 8.29894 15.1053 8.40657 15.1712 8.45824C15.2132 8.49116 15.2492 8.51344 15.3041 8.51066C15.4971 8.50078 15.4984 8.19916 15.3041 8.20904L15.2895 8.2098L15.3961 8.25386L15.3844 8.24475V8.45798C15.7131 8.10723 15.9456 7.68076 16.0573 7.21276C16.1024 7.02409 15.8117 6.94355 15.7666 7.13248V7.13273Z" fill="white"/>
    <path d="M16.2577 7.57255C16.1399 7.64448 16.0584 7.76528 15.969 7.86835C15.8796 7.97142 15.7816 8.08007 15.6686 8.16414C15.5149 8.27887 15.6651 8.54073 15.8208 8.42448C15.9338 8.34015 16.0348 8.2467 16.129 8.14186C16.2149 8.04613 16.2995 7.90026 16.4099 7.83289C16.5752 7.73185 16.4238 7.471 16.2577 7.57255Z" fill="white"/>
    <path d="M15.5702 7.55928C15.553 7.69856 15.3965 7.82848 15.3068 7.92395C15.1949 8.04323 15.0771 8.15669 14.9556 8.26584C14.8107 8.39576 15.0247 8.60823 15.1688 8.47908C15.3253 8.33878 15.4747 8.19088 15.6148 8.03412C15.7427 7.89078 15.8478 7.75478 15.8718 7.55953C15.8959 7.36427 15.5938 7.36909 15.5702 7.55953V7.55928Z" fill="white"/>
    <path d="M14.1098 8.54824C14.4041 8.51253 14.6865 8.44086 14.9592 8.32411C15.232 8.20736 15.4548 8.04731 15.6916 7.87536C15.7124 7.86016 15.7136 7.85788 15.6954 7.86801C15.6789 7.87308 15.6789 7.87586 15.6949 7.87662C15.6794 7.90499 15.6617 7.93208 15.6425 7.95791C15.6027 8.0111 15.5561 8.05845 15.5065 8.10252C15.4014 8.19597 15.2765 8.26713 15.1494 8.32563C14.8587 8.45935 14.5383 8.51987 14.2354 8.61915L14.4056 8.84074C14.3871 8.86809 14.4649 8.82504 14.4813 8.81896C14.5337 8.79946 14.5862 8.78021 14.6388 8.76122C14.7363 8.72602 14.8344 8.69158 14.9324 8.65739C15.0932 8.60167 15.0653 8.37071 14.8923 8.36134C14.8716 8.36007 14.8508 8.35906 14.8303 8.35779L14.981 8.50848C14.9331 8.56723 14.9258 8.58673 14.9587 8.56647C14.9703 8.56014 14.9822 8.55457 14.9947 8.55001C15.0324 8.53279 15.0706 8.51734 15.1089 8.50139C15.1884 8.4677 15.2679 8.43453 15.3477 8.40161C15.5007 8.33855 15.6544 8.27675 15.8081 8.21598C15.9866 8.14557 15.9089 7.85383 15.7278 7.92525C15.5123 8.01034 15.2975 8.09745 15.0841 8.1871C14.9253 8.25396 14.6882 8.30081 14.6794 8.50848C14.6758 8.59306 14.7515 8.65486 14.83 8.65916C14.8508 8.66043 14.8716 8.66144 14.8921 8.66271C14.8787 8.56394 14.8652 8.46517 14.8521 8.36666C14.7163 8.41376 14.5808 8.46163 14.4459 8.51152C14.3304 8.55406 14.2172 8.58268 14.145 8.68854C14.0728 8.7944 14.1936 8.94989 14.3152 8.91013C14.6816 8.79009 15.0671 8.71665 15.4095 8.53228C15.5599 8.45124 15.7045 8.34665 15.8177 8.218C15.919 8.10303 16.0459 7.93968 15.9864 7.77659C15.9304 7.62312 15.7184 7.52233 15.568 7.59602C15.5032 7.62768 15.45 7.68694 15.3925 7.72999C15.3138 7.789 15.2309 7.84319 15.1464 7.89334C14.8298 8.07998 14.475 8.2023 14.1098 8.24687C13.9196 8.26992 13.9173 8.57179 14.1098 8.54849V8.54824Z" fill="white"/>
    <path d="M16.4522 7.59676C16.2919 7.8419 16.128 8.10452 15.891 8.28382C15.654 8.46312 15.3718 8.52517 15.095 8.58721C15.1338 8.67914 15.1725 8.77082 15.2113 8.86275C15.4068 8.75715 15.6086 8.67357 15.8214 8.6095C16.0067 8.55379 15.9282 8.26382 15.7411 8.31877C15.227 8.46945 14.701 8.57329 14.1676 8.6247L14.2743 8.882C14.3941 8.77209 14.5303 8.68472 14.6825 8.62621C14.8616 8.55708 14.7838 8.26534 14.6022 8.33549C14.3991 8.41399 14.2216 8.52162 14.061 8.66901C13.9699 8.75259 14.0365 8.93898 14.1676 8.92631C14.7281 8.87237 15.2809 8.76803 15.8214 8.60975L15.7411 8.31902C15.5043 8.39019 15.2764 8.48516 15.0591 8.60266C14.9041 8.68649 15.013 8.91467 15.1753 8.8782C15.4929 8.80703 15.8135 8.72068 16.0759 8.5196C16.3382 8.31852 16.5305 8.02779 16.7125 7.74921C16.8192 7.58637 16.5581 7.43518 16.4522 7.59701V7.59676Z" fill="white"/>
    <path d="M14.1074 9.4516C14.3961 9.34321 14.685 9.23457 14.9722 9.12238C15.112 9.06768 15.2516 9.01222 15.3903 8.95549C15.5205 8.90231 15.6563 8.85495 15.77 8.77011C15.8956 8.67616 15.83 8.43582 15.6537 8.49458C15.387 8.58347 15.1148 8.65387 14.838 8.70199C14.5612 8.7501 14.2778 8.77315 14.001 8.8314C13.8113 8.87141 13.8916 9.16214 14.0813 9.12213C14.3578 9.06388 14.64 9.04109 14.9183 8.99272C15.1966 8.94435 15.4673 8.8742 15.734 8.78531C15.6953 8.69338 15.6565 8.6017 15.6178 8.50977C15.3997 8.67286 15.0976 8.75188 14.8456 8.84988C14.5736 8.95574 14.3004 9.05831 14.0274 9.16087C13.8473 9.22849 13.9253 9.51998 14.1076 9.4516H14.1074Z" fill="white"/>
    <path d="M14.2954 9.43588C14.671 9.34243 15.0359 9.21251 15.3864 9.04816C15.6934 8.90431 16.0803 8.73995 16.2662 8.44112C16.369 8.27575 16.1082 8.1243 16.0059 8.28892C15.9256 8.41782 15.7878 8.49177 15.6599 8.56572C15.508 8.65334 15.352 8.73387 15.1927 8.80706C14.8787 8.95116 14.5502 9.06158 14.2152 9.14515C14.027 9.192 14.1068 9.48273 14.2954 9.43588Z" fill="white"/>
    <path d="M16.6742 7.61861C16.8682 7.61861 16.8685 7.31699 16.6742 7.31699C16.48 7.31699 16.48 7.61861 16.6742 7.61861Z" fill="white"/>
    <path d="M16.6742 7.63292C16.8682 7.63292 16.8685 7.3313 16.6742 7.3313C16.48 7.3313 16.48 7.63292 16.6742 7.63292Z" fill="white"/>
    <path d="M16.6598 7.71065C16.8538 7.71065 16.8541 7.40903 16.6598 7.40903C16.4656 7.40903 16.4656 7.71065 16.6598 7.71065Z" fill="white"/>
    <path d="M15.8791 7.21614C16.0731 7.21614 16.0733 6.91452 15.8791 6.91452C15.6848 6.91452 15.6848 7.21614 15.8791 7.21614Z" fill="white"/>
    <path d="M15.8742 7.19655C16.0682 7.19655 16.0684 6.89493 15.8742 6.89493C15.68 6.89493 15.68 7.19655 15.8742 7.19655Z" fill="white"/>
    <path d="M16.3201 8.32188C16.5141 8.32188 16.5144 8.02026 16.3201 8.02026C16.1259 8.02026 16.1259 8.32188 16.3201 8.32188Z" fill="white"/>
    <path d="M15.5202 7.90001C15.7142 7.90001 15.7144 7.59839 15.5202 7.59839C15.326 7.59839 15.326 7.90001 15.5202 7.90001Z" fill="white"/>
    </svg>
    