<svg width="80" height="80" viewBox="0 0 80 80" fill="none" xmlns="http://www.w3.org/2000/svg">
<g filter="url(#filter0_d_8_246)">
<rect x="8" y="4" width="64" height="64" rx="32" fill="#FF8102"/>
<rect x="6" y="2" width="68" height="68" rx="34" stroke="#2B2B2B" stroke-width="4"/>
<path d="M39.335 33.2817C39.3817 33.41 39.4167 33.5267 39.4167 33.6667V39.7567C39.4167 40.34 39.195 40.9 38.7984 41.3317L35.5434 44.89L31.5767 40.9233L33 39.5L36.2667 25.3367C36.4067 24.7533 36.9317 24.3333 37.5384 24.3333C38.25 24.3333 38.8334 24.9167 38.8334 25.6283V31.415C38.6467 31.3683 38.4484 31.3333 38.25 31.3333C36.9667 31.3333 35.9167 32.3833 35.9167 33.6667V37.1667C35.9167 37.4933 36.1734 37.75 36.5 37.75C36.8267 37.75 37.0834 37.4933 37.0834 37.1667V33.6667C37.0834 33.025 37.6084 32.5 38.25 32.5C38.4717 32.5 38.6584 32.5817 38.8334 32.6867C38.9734 32.7683 39.0784 32.8733 39.1834 32.99C39.2184 33.0367 39.2534 33.0833 39.2767 33.1417C39.3 33.1883 39.3234 33.235 39.335 33.2817ZM28.3334 44.1667L33 47.6667L34.365 46.185L30.34 42.16L28.3334 44.1667ZM47 39.5L43.7334 25.3367C43.5934 24.7533 43.0684 24.3333 42.4617 24.3333C41.75 24.3333 41.1667 24.9167 41.1667 25.6283V31.415C41.3534 31.3683 41.5517 31.3333 41.75 31.3333C43.0334 31.3333 44.0834 32.3833 44.0834 33.6667V37.1667C44.0834 37.4933 43.8267 37.75 43.5 37.75C43.1734 37.75 42.9167 37.4933 42.9167 37.1667V33.6667C42.9167 33.025 42.3917 32.5 41.75 32.5C41.5284 32.5 41.3417 32.5817 41.1667 32.6867C41.0267 32.7683 40.9217 32.8733 40.8284 32.99C40.7934 33.0367 40.7467 33.0833 40.7234 33.1417C40.7 33.1883 40.6767 33.235 40.665 33.2817C40.6184 33.41 40.5834 33.5267 40.5834 33.6667V39.7567C40.5834 40.34 40.805 40.9 41.2017 41.3317L44.4567 44.89L48.4234 40.9233L47 39.5ZM49.66 42.16L45.635 46.185L47 47.6667L51.6667 44.1667L49.66 42.16Z" fill="white"/>
</g>
<defs>
<filter id="filter0_d_8_246" x="0" y="0" width="80" height="80" filterUnits="userSpaceOnUse" color-interpolation-filters="sRGB">
<feFlood flood-opacity="0" result="BackgroundImageFix"/>
<feColorMatrix in="SourceAlpha" type="matrix" values="0 0 0 0 0 0 0 0 0 0 0 0 0 0 0 0 0 0 127 0" result="hardAlpha"/>
<feOffset dy="4"/>
<feGaussianBlur stdDeviation="2"/>
<feComposite in2="hardAlpha" operator="out"/>
<feColorMatrix type="matrix" values="0 0 0 0 0 0 0 0 0 0 0 0 0 0 0 0 0 0 0.25 0"/>
<feBlend mode="normal" in2="BackgroundImageFix" result="effect1_dropShadow_8_246"/>
<feBlend mode="normal" in="SourceGraphic" in2="effect1_dropShadow_8_246" result="shape"/>
</filter>
</defs>
</svg>
