<svg width="75" height="49" viewBox="0 0 75 49" fill="none" xmlns="http://www.w3.org/2000/svg">
<path d="M29.6433 38.3065V43.8665H28.7313V38.3065H29.6433ZM32.8246 39.3865C33.1713 39.3865 33.4806 39.4585 33.7526 39.6025C34.03 39.7465 34.246 39.9598 34.4006 40.2425C34.5553 40.5251 34.6326 40.8665 34.6326 41.2665V43.8665H33.7286V41.4025C33.7286 41.0078 33.63 40.7065 33.4326 40.4985C33.2353 40.2851 32.966 40.1785 32.6246 40.1785C32.2833 40.1785 32.0113 40.2851 31.8086 40.4985C31.6113 40.7065 31.5126 41.0078 31.5126 41.4025V43.8665H30.6006V39.4585H31.5126V39.9625C31.662 39.7811 31.8513 39.6398 32.0806 39.5385C32.3153 39.4371 32.5633 39.3865 32.8246 39.3865ZM37.2599 43.0505L38.5079 39.4585H39.4759L37.7959 43.8665H36.7079L35.0359 39.4585H36.0119L37.2599 43.0505ZM40.3893 38.8745C40.224 38.8745 40.0853 38.8185 39.9733 38.7065C39.8613 38.5945 39.8053 38.4558 39.8053 38.2905C39.8053 38.1251 39.8613 37.9865 39.9733 37.8745C40.0853 37.7625 40.224 37.7065 40.3893 37.7065C40.5493 37.7065 40.6853 37.7625 40.7973 37.8745C40.9093 37.9865 40.9653 38.1251 40.9653 38.2905C40.9653 38.4558 40.9093 38.5945 40.7973 38.7065C40.6853 38.8185 40.5493 38.8745 40.3893 38.8745ZM40.8373 39.4585V43.8665H39.9253V39.4585H40.8373ZM42.8587 40.2025V42.6425C42.8587 42.8078 42.896 42.9278 42.9707 43.0025C43.0507 43.0718 43.184 43.1065 43.3707 43.1065H43.9307V43.8665H43.2107C42.8 43.8665 42.4854 43.7705 42.2667 43.5785C42.048 43.3865 41.9387 43.0745 41.9387 42.6425V40.2025H41.4187V39.4585H41.9387V38.3625H42.8587V39.4585H43.9307V40.2025H42.8587ZM48.5713 41.5545C48.5713 41.7198 48.5606 41.8691 48.5393 42.0025H45.1713C45.1979 42.3545 45.3286 42.6371 45.5633 42.8505C45.7979 43.0638 46.0859 43.1705 46.4273 43.1705C46.9179 43.1705 47.2646 42.9651 47.4673 42.5545H48.4513C48.3179 42.9598 48.0753 43.2931 47.7233 43.5545C47.3766 43.8105 46.9446 43.9385 46.4273 43.9385C46.0059 43.9385 45.6273 43.8451 45.2913 43.6585C44.9606 43.4665 44.6993 43.1998 44.5073 42.8585C44.3206 42.5118 44.2273 42.1118 44.2273 41.6585C44.2273 41.2051 44.3179 40.8078 44.4993 40.4665C44.6859 40.1198 44.9446 39.8531 45.2753 39.6665C45.6113 39.4798 45.9953 39.3865 46.4273 39.3865C46.8433 39.3865 47.2139 39.4771 47.5393 39.6585C47.8646 39.8398 48.1179 40.0958 48.2993 40.4265C48.4806 40.7518 48.5713 41.1278 48.5713 41.5545ZM47.6193 41.2665C47.6139 40.9305 47.4939 40.6611 47.2593 40.4585C47.0246 40.2558 46.7339 40.1545 46.3873 40.1545C46.0726 40.1545 45.8033 40.2558 45.5793 40.4585C45.3553 40.6558 45.2219 40.9251 45.1793 41.2665H47.6193Z" fill="#E0E0E0"/>
<path d="M24 8V13M24 13V18M24 13H19M24 13H29" stroke="#EAEAEA" stroke-width="2" stroke-linecap="round"/>
<path d="M38.3333 8.36683C39.571 8.36683 40.758 8.8585 41.6332 9.73367C42.5083 10.6088 43 11.7958 43 13.0335C43 14.2712 42.5083 15.4582 41.6332 16.3333C40.758 17.2085 39.571 17.7002 38.3333 17.7002C37.0957 17.7002 35.9087 17.2085 35.0335 16.3333C34.1583 15.4582 33.6667 14.2712 33.6667 13.0335C33.6667 11.7958 34.1583 10.6088 35.0335 9.73367C35.9087 8.8585 37.0957 8.36683 38.3333 8.36683ZM38.3333 20.0335C43.49 20.0335 47.6667 22.1218 47.6667 24.7002V27.0335H29V24.7002C29 22.1218 33.1767 20.0335 38.3333 20.0335Z" fill="white"/>
</svg>
