<svg width="75" height="49" viewBox="0 0 75 49" fill="none" xmlns="http://www.w3.org/2000/svg">
<path d="M38 9.63833L43.8334 14.8883V24H41.5V17H34.5V24H32.1667V14.8883L38 9.63833ZM38 6.5L26.3334 17H29.8334V26.3333H36.8334V19.3333H39.1667V26.3333H46.1667V17H49.6667" fill="white"/>
<path d="M31.4039 38.3065V43.8665H30.4919V41.4345H27.8759V43.8665H26.9639V38.3065H27.8759V40.6905H30.4919V38.3065H31.4039ZM34.2765 43.9385C33.8605 43.9385 33.4845 43.8451 33.1485 43.6585C32.8125 43.4665 32.5485 43.1998 32.3565 42.8585C32.1645 42.5118 32.0685 42.1118 32.0685 41.6585C32.0685 41.2105 32.1672 40.8131 32.3645 40.4665C32.5619 40.1198 32.8312 39.8531 33.1725 39.6665C33.5139 39.4798 33.8952 39.3865 34.3165 39.3865C34.7379 39.3865 35.1192 39.4798 35.4605 39.6665C35.8019 39.8531 36.0712 40.1198 36.2685 40.4665C36.4659 40.8131 36.5645 41.2105 36.5645 41.6585C36.5645 42.1065 36.4632 42.5038 36.2605 42.8505C36.0579 43.1971 35.7805 43.4665 35.4285 43.6585C35.0819 43.8451 34.6979 43.9385 34.2765 43.9385ZM34.2765 43.1465C34.5112 43.1465 34.7299 43.0905 34.9325 42.9785C35.1405 42.8665 35.3085 42.6985 35.4365 42.4745C35.5645 42.2505 35.6285 41.9785 35.6285 41.6585C35.6285 41.3385 35.5672 41.0691 35.4445 40.8505C35.3219 40.6265 35.1592 40.4585 34.9565 40.3465C34.7539 40.2345 34.5352 40.1785 34.3005 40.1785C34.0659 40.1785 33.8472 40.2345 33.6445 40.3465C33.4472 40.4585 33.2899 40.6265 33.1725 40.8505C33.0552 41.0691 32.9965 41.3385 32.9965 41.6585C32.9965 42.1331 33.1165 42.5011 33.3565 42.7625C33.6019 43.0185 33.9085 43.1465 34.2765 43.1465ZM42.5621 39.3865C42.9088 39.3865 43.2181 39.4585 43.4901 39.6025C43.7674 39.7465 43.9834 39.9598 44.1381 40.2425C44.2981 40.5251 44.3781 40.8665 44.3781 41.2665V43.8665H43.4741V41.4025C43.4741 41.0078 43.3754 40.7065 43.1781 40.4985C42.9808 40.2851 42.7114 40.1785 42.3701 40.1785C42.0288 40.1785 41.7568 40.2851 41.5541 40.4985C41.3568 40.7065 41.2581 41.0078 41.2581 41.4025V43.8665H40.3541V41.4025C40.3541 41.0078 40.2554 40.7065 40.0581 40.4985C39.8608 40.2851 39.5914 40.1785 39.2501 40.1785C38.9088 40.1785 38.6368 40.2851 38.4341 40.4985C38.2368 40.7065 38.1381 41.0078 38.1381 41.4025V43.8665H37.2261V39.4585H38.1381V39.9625C38.2874 39.7811 38.4768 39.6398 38.7061 39.5385C38.9354 39.4371 39.1808 39.3865 39.4421 39.3865C39.7941 39.3865 40.1088 39.4611 40.3861 39.6105C40.6634 39.7598 40.8768 39.9758 41.0261 40.2585C41.1594 39.9918 41.3674 39.7811 41.6501 39.6265C41.9328 39.4665 42.2368 39.3865 42.5621 39.3865ZM49.3386 41.5545C49.3386 41.7198 49.3279 41.8691 49.3066 42.0025H45.9386C45.9653 42.3545 46.0959 42.6371 46.3306 42.8505C46.5653 43.0638 46.8533 43.1705 47.1946 43.1705C47.6853 43.1705 48.0319 42.9651 48.2346 42.5545H49.2186C49.0853 42.9598 48.8426 43.2931 48.4906 43.5545C48.1439 43.8105 47.7119 43.9385 47.1946 43.9385C46.7733 43.9385 46.3946 43.8451 46.0586 43.6585C45.7279 43.4665 45.4666 43.1998 45.2746 42.8585C45.0879 42.5118 44.9946 42.1118 44.9946 41.6585C44.9946 41.2051 45.0853 40.8078 45.2666 40.4665C45.4533 40.1198 45.7119 39.8531 46.0426 39.6665C46.3786 39.4798 46.7626 39.3865 47.1946 39.3865C47.6106 39.3865 47.9813 39.4771 48.3066 39.6585C48.6319 39.8398 48.8853 40.0958 49.0666 40.4265C49.2479 40.7518 49.3386 41.1278 49.3386 41.5545ZM48.3866 41.2665C48.3813 40.9305 48.2613 40.6611 48.0266 40.4585C47.7919 40.2558 47.5013 40.1545 47.1546 40.1545C46.8399 40.1545 46.5706 40.2558 46.3466 40.4585C46.1226 40.6558 45.9893 40.9251 45.9466 41.2665H48.3866Z" fill="white"/>
</svg>
