<svg width="75" height="49" viewBox="0 0 75 49" fill="none" xmlns="http://www.w3.org/2000/svg">
<path d="M23.8965 38.3065V43.8665H22.9845V40.0585L21.2885 43.8665H20.6565L18.9525 40.0585V43.8665H18.0405V38.3065H19.0245L20.9765 42.6665L22.9205 38.3065H23.8965ZM28.8232 39.4585L26.1192 45.9385H25.1752L26.0712 43.7945L24.3352 39.4585H25.3512L26.5912 42.8185L27.8792 39.4585H28.8232ZM35.1335 39.9065C34.9895 39.6291 34.7895 39.4211 34.5335 39.2825C34.2775 39.1385 33.9815 39.0665 33.6455 39.0665C33.2775 39.0665 32.9495 39.1491 32.6615 39.3145C32.3735 39.4798 32.1469 39.7145 31.9815 40.0185C31.8215 40.3225 31.7415 40.6745 31.7415 41.0745C31.7415 41.4745 31.8215 41.8291 31.9815 42.1385C32.1469 42.4425 32.3735 42.6771 32.6615 42.8425C32.9495 43.0078 33.2775 43.0905 33.6455 43.0905C34.1415 43.0905 34.5442 42.9518 34.8535 42.6745C35.1629 42.3971 35.3522 42.0211 35.4215 41.5465H33.3335V40.8185H36.3975V41.5305C36.3389 41.9625 36.1842 42.3598 35.9335 42.7225C35.6882 43.0851 35.3655 43.3758 34.9655 43.5945C34.5709 43.8078 34.1309 43.9145 33.6455 43.9145C33.1229 43.9145 32.6455 43.7945 32.2135 43.5545C31.7815 43.3091 31.4375 42.9705 31.1815 42.5385C30.9309 42.1065 30.8055 41.6185 30.8055 41.0745C30.8055 40.5305 30.9309 40.0425 31.1815 39.6105C31.4375 39.1785 31.7815 38.8425 32.2135 38.6025C32.6509 38.3571 33.1282 38.2345 33.6455 38.2345C34.2375 38.2345 34.7629 38.3811 35.2215 38.6745C35.6855 38.9625 36.0215 39.3731 36.2295 39.9065H35.1335ZM37.969 40.0985C38.1024 39.8745 38.2784 39.7011 38.497 39.5785C38.721 39.4505 38.985 39.3865 39.289 39.3865V40.3305H39.057C38.6997 40.3305 38.4277 40.4211 38.241 40.6025C38.0597 40.7838 37.969 41.0985 37.969 41.5465V43.8665H37.057V39.4585H37.969V40.0985ZM41.7993 43.9385C41.3833 43.9385 41.0073 43.8451 40.6713 43.6585C40.3353 43.4665 40.0713 43.1998 39.8793 42.8585C39.6873 42.5118 39.5913 42.1118 39.5913 41.6585C39.5913 41.2105 39.69 40.8131 39.8873 40.4665C40.0847 40.1198 40.354 39.8531 40.6953 39.6665C41.0367 39.4798 41.418 39.3865 41.8393 39.3865C42.2607 39.3865 42.642 39.4798 42.9833 39.6665C43.3247 39.8531 43.594 40.1198 43.7913 40.4665C43.9887 40.8131 44.0873 41.2105 44.0873 41.6585C44.0873 42.1065 43.986 42.5038 43.7833 42.8505C43.5807 43.1971 43.3033 43.4665 42.9513 43.6585C42.6047 43.8451 42.2207 43.9385 41.7993 43.9385ZM41.7993 43.1465C42.034 43.1465 42.2527 43.0905 42.4553 42.9785C42.6633 42.8665 42.8313 42.6985 42.9593 42.4745C43.0873 42.2505 43.1513 41.9785 43.1513 41.6585C43.1513 41.3385 43.09 41.0691 42.9673 40.8505C42.8447 40.6265 42.682 40.4585 42.4793 40.3465C42.2767 40.2345 42.058 40.1785 41.8233 40.1785C41.5887 40.1785 41.37 40.2345 41.1673 40.3465C40.97 40.4585 40.8127 40.6265 40.6953 40.8505C40.578 41.0691 40.5193 41.3385 40.5193 41.6585C40.5193 42.1331 40.6393 42.5011 40.8793 42.7625C41.1247 43.0185 41.4313 43.1465 41.7993 43.1465ZM48.7409 39.4585V43.8665H47.8289V43.3465C47.6849 43.5278 47.4956 43.6718 47.2609 43.7785C47.0316 43.8798 46.7862 43.9305 46.5249 43.9305C46.1782 43.9305 45.8662 43.8585 45.5889 43.7145C45.3169 43.5705 45.1009 43.3571 44.9409 43.0745C44.7862 42.7918 44.7089 42.4505 44.7089 42.0505V39.4585H45.6129V41.9145C45.6129 42.3091 45.7116 42.6131 45.9089 42.8265C46.1062 43.0345 46.3756 43.1385 46.7169 43.1385C47.0582 43.1385 47.3276 43.0345 47.5249 42.8265C47.7276 42.6131 47.8289 42.3091 47.8289 41.9145V39.4585H48.7409ZM50.6162 40.1065C50.7709 39.9038 50.9816 39.7331 51.2482 39.5945C51.5149 39.4558 51.8162 39.3865 52.1522 39.3865C52.5362 39.3865 52.8856 39.4825 53.2002 39.6745C53.5202 39.8611 53.7709 40.1251 53.9522 40.4665C54.1336 40.8078 54.2242 41.1998 54.2242 41.6425C54.2242 42.0851 54.1336 42.4825 53.9522 42.8345C53.7709 43.1811 53.5202 43.4531 53.2002 43.6505C52.8856 43.8425 52.5362 43.9385 52.1522 43.9385C51.8162 43.9385 51.5176 43.8718 51.2562 43.7385C50.9949 43.5998 50.7816 43.4291 50.6162 43.2265V45.9625H49.7042V39.4585H50.6162V40.1065ZM53.2962 41.6425C53.2962 41.3385 53.2322 41.0771 53.1042 40.8585C52.9816 40.6345 52.8162 40.4665 52.6082 40.3545C52.4056 40.2371 52.1869 40.1785 51.9522 40.1785C51.7229 40.1785 51.5042 40.2371 51.2962 40.3545C51.0936 40.4718 50.9282 40.6425 50.8002 40.8665C50.6776 41.0905 50.6162 41.3545 50.6162 41.6585C50.6162 41.9625 50.6776 42.2291 50.8002 42.4585C50.9282 42.6825 51.0936 42.8531 51.2962 42.9705C51.5042 43.0878 51.7229 43.1465 51.9522 43.1465C52.1869 43.1465 52.4056 43.0878 52.6082 42.9705C52.8162 42.8478 52.9816 42.6718 53.1042 42.4425C53.2322 42.2131 53.2962 41.9465 53.2962 41.6425ZM56.4861 43.9385C56.1394 43.9385 55.8274 43.8771 55.5501 43.7545C55.2781 43.6265 55.0621 43.4558 54.9021 43.2425C54.7421 43.0238 54.6568 42.7811 54.6461 42.5145H55.5901C55.6061 42.7011 55.6941 42.8585 55.8541 42.9865C56.0194 43.1091 56.2248 43.1705 56.4701 43.1705C56.7261 43.1705 56.9234 43.1225 57.0621 43.0265C57.2061 42.9251 57.2781 42.7971 57.2781 42.6425C57.2781 42.4771 57.1981 42.3545 57.0381 42.2745C56.8834 42.1945 56.6354 42.1065 56.2941 42.0105C55.9634 41.9198 55.6941 41.8318 55.4861 41.7465C55.2781 41.6611 55.0968 41.5305 54.9421 41.3545C54.7928 41.1785 54.7181 40.9465 54.7181 40.6585C54.7181 40.4238 54.7874 40.2105 54.9261 40.0185C55.0648 39.8211 55.2621 39.6665 55.5181 39.5545C55.7794 39.4425 56.0781 39.3865 56.4141 39.3865C56.9154 39.3865 57.3181 39.5145 57.6221 39.7705C57.9314 40.0211 58.0968 40.3651 58.1181 40.8025H57.2061C57.1901 40.6051 57.1101 40.4478 56.9661 40.3305C56.8221 40.2131 56.6274 40.1545 56.3821 40.1545C56.1421 40.1545 55.9581 40.1998 55.8301 40.2905C55.7021 40.3811 55.6381 40.5011 55.6381 40.6505C55.6381 40.7678 55.6808 40.8665 55.7661 40.9465C55.8514 41.0265 55.9554 41.0905 56.0781 41.1385C56.2008 41.1811 56.3821 41.2371 56.6221 41.3065C56.9421 41.3918 57.2034 41.4798 57.4061 41.5705C57.6141 41.6558 57.7928 41.7838 57.9421 41.9545C58.0914 42.1251 58.1688 42.3518 58.1741 42.6345C58.1741 42.8851 58.1048 43.1091 57.9661 43.3065C57.8274 43.5038 57.6301 43.6585 57.3741 43.7705C57.1234 43.8825 56.8274 43.9385 56.4861 43.9385Z" fill="#FF8102"/>
<path d="M42.6667 22.8333V25.1667H26.3334V22.8333C26.3334 22.8333 26.3334 18.1667 34.5 18.1667C42.6667 18.1667 42.6667 22.8333 42.6667 22.8333ZM38.5834 11.75C38.5834 10.9424 38.3439 10.1529 37.8952 9.48141C37.4465 8.80991 36.8088 8.28654 36.0627 7.97748C35.3165 7.66842 34.4955 7.58756 33.7034 7.74512C32.9113 7.90267 32.1838 8.29157 31.6127 8.86264C31.0416 9.4337 30.6527 10.1613 30.4952 10.9534C30.3376 11.7455 30.4185 12.5665 30.7275 13.3126C31.0366 14.0587 31.56 14.6965 32.2315 15.1452C32.903 15.5938 33.6924 15.8333 34.5 15.8333C35.583 15.8333 36.6216 15.4031 37.3874 14.6373C38.1532 13.8716 38.5834 12.833 38.5834 11.75ZM42.5967 18.1667C43.3139 18.7217 43.9008 19.4272 44.316 20.2334C44.7312 21.0397 44.9647 21.9271 45 22.8333V25.1667H49.6667V22.8333C49.6667 22.8333 49.6667 18.5983 42.5967 18.1667ZM41.5 7.66666C40.697 7.66219 39.9116 7.90227 39.2484 8.35499C39.9571 9.34518 40.3381 10.5323 40.3381 11.75C40.3381 12.9677 39.9571 14.1548 39.2484 15.145C39.9116 15.5977 40.697 15.8378 41.5 15.8333C42.583 15.8333 43.6216 15.4031 44.3874 14.6373C45.1532 13.8716 45.5834 12.833 45.5834 11.75C45.5834 10.667 45.1532 9.62841 44.3874 8.86264C43.6216 8.09686 42.583 7.66666 41.5 7.66666Z" fill="#FF8102"/>
<circle cx="54" cy="8" r="5" fill="#FF0000"/>
</svg>
